<?xml version="1.0" standalone="no"?>
<!DOCTYPE svg PUBLIC "-//W3C//DTD SVG 1.1//EN" "http://www.w3.org/Graphics/SVG/1.1/DTD/svg11.dtd" >
<svg>
<metadata>
Created by FontForge 20110222 at Sat Feb 22 13:19:54 2014
 By Orthosie Webhosting
Copyright (C) 1994, Emigre, Inc., Designed by Conor Mangat
</metadata>
<defs>
<font id="PlateletHeavyRegular" horiz-adv-x="946" >
  <font-face 
    font-family="PlateletHeavyRegular"
    font-weight="400"
    font-stretch="normal"
    units-per-em="2048"
    panose-1="2 11 5 0 0 0 0 0 0 0"
    ascent="1507"
    descent="-541"
    x-height="946"
    cap-height="946"
    bbox="-2 -426.022 1810 1507"
    underline-thickness="66"
    underline-position="10"
    unicode-range="U+0009-F002"
  />
<missing-glyph horiz-adv-x="1024" 
d="M128 0v1507h768v-1507h-768zM256 128h512v1251h-512v-1251z" />
    <glyph glyph-name=".notdef" horiz-adv-x="1024" 
d="M128 0v1507h768v-1507h-768zM256 128h512v1251h-512v-1251z" />
    <glyph glyph-name=".null" horiz-adv-x="0" 
 />
    <glyph glyph-name="glyph2" 
 />
    <glyph glyph-name="glyph245" horiz-adv-x="0" 
 />
    <glyph glyph-name="glyph245" horiz-adv-x="0" 
 />
    <glyph glyph-name="HT" unicode="&#x9;" horiz-adv-x="0" 
 />
    <glyph glyph-name="LF" unicode="&#xa;" horiz-adv-x="0" 
 />
    <glyph glyph-name="nonmarkingreturn" unicode="&#xd;" horiz-adv-x="0" 
 />
    <glyph glyph-name="DLE" 
d="M551 856v45q0 45 -45 45h-78q-22 0 -22 23v338q0 45 -46 45h-47q-43 0 -71 -37l-58 -76q-16 -21 -16 -41q0 -37 45 -37h12q23 0 23 -22v-170q0 -23 -23 -23h-75q-46 0 -46 -45v-45q0 -45 46 -45h356q45 0 45 45zM842 164q0 58 -51 98q-7 5 -7 10q0 8 7 11q40 37 40 94
q0 81 -63 128q-57 42 -141 42q-135 0 -195 -105q-8 -14 -8 -26q0 -24 20 -37l35 -23q8 -4 25 -4q27 0 39 17q36 49 84 49q53 0 53 -41q0 -39 -53 -39q-45 0 -45 -45v-45q0 -45 45 -45q59 0 59 -39q0 -41 -59 -41q-51 0 -88 51q-15 21 -37 21q-12 0 -25 -7l-33 -18
q-24 -13 -24 -39q0 -7 8 -25q65 -112 199 -112q88 0 147 40q68 46 68 130zM834 844l-33 49q-15 22 -35 22q-14 0 -27 -8l-612 -393q-23 -15 -23 -37q0 -9 11 -26l32 -50q15 -24 35 -24q11 0 27 10l612 393q23 12 23 35q0 14 -10 29z" />
    <glyph glyph-name="DC1" 
d="M551 856v45q0 45 -45 45h-176q-11 0 -15 8q0 5 7 11q11 10 73 26q146 39 146 180q0 87 -66 139q-61 48 -149 48q-60 0 -117 -34q-48 -30 -78 -81q-8 -14 -8 -26q0 -23 20 -35l35 -21q14 -8 27 -8q26 0 41 23q36 53 82 53q65 0 65 -58q0 -43 -80 -65q-209 -59 -209 -250
q0 -45 46 -45h356q45 0 45 45zM842 164q0 58 -51 98q-7 5 -7 10q0 8 7 11q40 37 40 94q0 81 -63 128q-57 42 -141 42q-135 0 -195 -105q-8 -14 -8 -26q0 -24 20 -37l35 -23q8 -4 25 -4q27 0 39 17q36 49 84 49q53 0 53 -41q0 -39 -53 -39q-45 0 -45 -45v-45q0 -45 45 -45
q59 0 59 -39q0 -41 -59 -41q-51 0 -88 51q-15 21 -37 21q-12 0 -25 -7l-33 -18q-24 -13 -24 -39q0 -7 8 -25q65 -112 199 -112q88 0 147 40q68 46 68 130zM834 844l-33 49q-15 22 -35 22q-14 0 -27 -8l-612 -393q-23 -15 -23 -37q0 -9 11 -26l32 -50q15 -24 35 -24
q11 0 27 10l612 393q23 12 23 35q0 14 -10 29z" />
    <glyph glyph-name="DC2" 
d="M834 850q10 -15 10 -29q0 -20 -23 -35l-612 -393q-16 -10 -27 -10q-19 0 -35 25l-32 49q-11 17 -11 26q0 22 23 37l612 393q14 9 27 9q20 0 35 -23z" />
    <glyph glyph-name="DC3" 
d="M696 1010q0 -92 -67 -150q-63 -55 -156 -55t-156 55q-67 58 -67 150v143q0 92 67 150q63 55 156 55q134 0 195 -101q28 -48 28 -104v-143zM539 1010v143q0 76 -66 76q-65 0 -65 -76v-143q0 -76 65 -76q66 0 66 76z" />
    <glyph glyph-name="DC4" 
d="M696 956q0 -45 -45 -45q-24 0 -24 -22v-33q0 -45 -45 -45h-60q-45 0 -45 45v33q0 22 -22 22h-97q-106 0 -106 90q0 42 20 89l93 219q18 43 55 43h72q36 0 36 -33q0 -8 -4 -16l-98 -230q0 -29 18 -29h11q22 0 22 23q0 34 37.5 69t71.5 35q41 0 41 -45v-57q0 -22 24 -22
q45 0 45 -46v-45z" />
    <glyph glyph-name="RS" horiz-adv-x="0" 
 />
    <glyph glyph-name="US" horiz-adv-x="0" 
 />
    <glyph glyph-name="space" unicode=" " 
 />
    <glyph glyph-name="exclam" unicode="!" 
d="M584 451q0 -45 -45 -45h-131q-46 0 -46 45v856q0 45 46 45h131q45 0 45 -45v-856zM584 45q0 -45 -45 -45h-131q-46 0 -46 45v94q0 45 46 45h131q45 0 45 -45v-94z" />
    <glyph glyph-name="quotedbl" unicode="&#x22;" 
d="M762 991q0 -45 -45 -45h-131q-45 0 -45 45v316q0 45 45 45h131q45 0 45 -45v-316zM406 991q0 -45 -46 -45h-131q-45 0 -45 45v316q0 45 45 45h131q46 0 46 -45v-316z" />
    <glyph glyph-name="numbersign" unicode="#" 
d="M842 801q0 -45 -45 -45h-74q-23 0 -23 -23v-74q0 -45 -45 -45h-94q-45 0 -45 45v74q0 23 -22 23h-41q-23 0 -23 -23v-74q0 -45 -45 -45h-94q-45 0 -45 45v74q0 23 -23 23h-73q-46 0 -46 45v94q0 45 46 45h73q23 0 23 23v41q0 22 -23 22h-73q-46 0 -46 45v94q0 45 46 45
h73q23 0 23 23v74q0 45 45 45h94q45 0 45 -45v-74q0 -23 23 -23h41q22 0 22 23v74q0 45 45 45h94q45 0 45 -45v-74q0 -23 23 -23h74q45 0 45 -45v-94q0 -45 -45 -45h-74q-23 0 -23 -22v-41q0 -23 23 -23h74q45 0 45 -45v-94zM516 963v41q0 22 -22 22h-41q-23 0 -23 -22v-41
q0 -23 23 -23h41q22 0 22 23z" />
    <glyph glyph-name="dollar" unicode="$" 
d="M842 297q0 -111 -63 -190.5t-171 -108.5q-24 -7 -24 -31v-57q0 -45 -45 -45h-129q-45 0 -45 45v57q0 25 -23 33q-143 52 -233 188q-9 14 -9 27q0 23 21 37l82 55q12 8 24 8q22 0 35 -20q95 -121 211 -121q62 0 103 30q47 33 47 93q0 80 -101 97q-27 4 -51 5
q-220 11 -304 143q-40 62 -40 142q0 193 217 266q21 7 21 27v59q0 45 45 45h129q45 0 45 -45v-59q0 -23 20 -31q108 -45 164 -115q12 -12 12 -28q0 -20 -18 -33l-88 -63q-10 -9 -27 -9q-21 0 -37 15q-63 61 -137 61q-49 0 -87 -20q-46 -25 -46 -70q0 -87 135 -92
q223 -8 319 -136q48 -65 48 -159z" />
    <glyph glyph-name="percent" unicode="%" 
d="M551 1024v143q0 120 -107 178q-50 27 -116 27q-92 0 -158 -57t-66 -148v-143q0 -91 67 -149q64 -56 157 -56q133 0 195 101q28 47 28 104zM393 1024q0 -76 -65 -76q-66 0 -66 76v143q0 76 66 76q65 0 65 -76v-143zM834 881l-33 49q-15 22 -35 22q-14 0 -27 -8l-612 -393
q-23 -15 -23 -37q0 -10 11 -27l32 -49q16 -24 35 -24q11 0 27 10l612 393q23 12 23 35q0 13 -10 29zM844 184v144q0 119 -107 177q-50 27 -116 27q-93 0 -157 -55q-67 -58 -67 -149v-144q0 -91 67 -149q64 -55 157 -55q134 0 195 101q28 47 28 103zM686 184q0 -75 -65 -75
q-66 0 -66 75v144q0 75 66 75q65 0 65 -75v-144z" />
    <glyph glyph-name="ampersand" unicode="&#x26;" 
d="M842 426q0 -45 -45 -45h-68q-22 0 -22 -23v-75q0 -135 -82.5 -219t-216.5 -84q-171 0 -260 142q-44 69 -44 161q0 104 80 176q9 8 9 16t-9 14q-80 71 -80 175q0 184 156 265q69 36 146 36q170 0 249 -129q9 -20 9 -27q0 -20 -21 -35l-82 -57q-22 -15 -35 -15
q-24 0 -47 29q-31 39 -73 39q-38 0 -62 -35q-20 -31 -20 -71q0 -99 147 -99h326q45 0 45 -45v-94zM487 283v75q0 23 -22 23h-59q-82 0 -82 -98q0 -43 20 -73q24 -36 64 -36q79 0 79 109z" />
    <glyph glyph-name="quotesingle" unicode="'" 
d="M584 991q0 -45 -45 -45h-131q-46 0 -46 45v316q0 45 46 45h131q45 0 45 -45v-316z" />
    <glyph glyph-name="parenleft" unicode="(" 
d="M711 -246q0 -45 -45 -45q-222 0 -323 172q-46 79 -46 170v979q0 197 178 295q85 47 191 47q45 0 45 -45v-104q0 -45 -45 -45q-64 0 -107 -42t-43 -106v-979q0 -64 43 -105.5t107 -41.5q45 0 45 -45v-105z" />
    <glyph glyph-name="parenright" unicode=")" 
d="M645 51q0 -106 -60.5 -190.5t-158.5 -124.5q-69 -27 -150 -27q-45 0 -45 45v105q0 45 45 45q64 0 107 41.5t43 105.5v979q0 64 -43 106t-107 42q-45 0 -45 45v104q0 45 45 45q164 0 269 -103q100 -99 100 -239v-979z" />
    <glyph glyph-name="asterisk" unicode="*" 
d="M803 885l-51 -80q-16 -25 -37 -25q-11 0 -25 8l-92 54q-27 0 -27 -17v-104q0 -45 -45 -45h-106q-45 0 -45 45v104q0 18 -15 21q-6 -1 -12 -4l-92 -54q-14 -8 -25 -8q-20 0 -36 25l-52 80q-8 16 -8 24q0 23 25 37l90 51q12 10 12 17q0 9 -12 16l-90 51q-25 14 -25 37
q0 9 8 25l52 80q16 24 34 24q13 0 27 -8l92 -53q27 0 27 16v105q0 45 45 45h106q45 0 45 -45v-105q0 -16 15 -20q6 1 12 4l92 53q14 8 27 8q16 0 35 -24l51 -80q8 -16 8 -25q0 -23 -25 -37l-90 -51q-12 -7 -12 -16q0 -6 12 -17l90 -51q25 -14 25 -37q0 -8 -8 -24z" />
    <glyph glyph-name="plus" unicode="+" 
d="M842 426q0 -45 -45 -45h-191q-22 0 -22 -23v-208q0 -46 -45 -46h-131q-46 0 -46 46v208q0 23 -22 23h-190q-46 0 -46 45v94q0 45 46 45h190q22 0 22 23v209q0 45 46 45h131q45 0 45 -45v-209q0 -23 22 -23h191q45 0 45 -45v-94z" />
    <glyph glyph-name="comma" unicode="," 
d="M584 82q0 -153 -106 -260t-247 -111q-45 -1 -45 45v88q0 46 45 58q57 16 94 67.5t37 112.5v57q0 45 46 45h131q45 0 45 -45v-57z" />
    <glyph glyph-name="hyphen" unicode="-" 
d="M731 426q0 -45 -45 -45h-426q-45 0 -45 45v94q0 45 45 45h426q45 0 45 -45v-94z" />
    <glyph glyph-name="hyphen" unicode="&#x2010;" 
d="M731 426q0 -45 -45 -45h-426q-45 0 -45 45v94q0 45 45 45h426q45 0 45 -45v-94z" />
    <glyph glyph-name="period" unicode="." 
d="M584 45q0 -45 -45 -45h-131q-46 0 -46 45v94q0 45 46 45h131q45 0 45 -45v-94z" />
    <glyph glyph-name="slash" unicode="/" 
d="M838 1298l-516 -1523q-15 -45 -58 -45h-117q-41 0 -41 53l512 1524q15 45 58 45h119q43 0 43 -54z" />
    <glyph glyph-name="zero" unicode="0" 
d="M842 322q0 -198 -177 -295q-85 -47 -192 -47q-221 0 -322 172q-47 78 -47 170v303q0 197 177 295q85 47 192 47q222 0 323 -172q46 -79 46 -170v-303zM623 322v303q0 64 -43 105.5t-107 41.5q-63 0 -106 -42.5t-43 -104.5v-303q0 -63 43 -105.5t106 -42.5q64 0 107 42
t43 106z" />
    <glyph glyph-name="one" unicode="1" 
d="M842 45q0 -45 -45 -45h-647q-46 0 -46 45v94q0 45 46 45h192q23 0 23 23v405q0 23 -23 23h-29q-71 0 -71 57q0 26 16 51l102 158q29 45 70 45h109q45 0 45 -45v-694q0 -23 22 -23h191q45 0 45 -45v-94z" />
    <glyph glyph-name="two" unicode="2" 
d="M842 45q0 -45 -45 -45h-647q-46 0 -46 45q0 193 99 307q91 104 360 240q45 23 45 72q0 52 -43 83q-39 29 -92 29q-97 0 -170 -123q-11 -18 -33 -18q-15 0 -28 8l-88 55q-19 12 -19 37q0 12 6 25q97 207 332 207q154 0 250 -88.5t96 -214.5q0 -161 -145 -238l-146 -78
q-95 -52 -138 -88q-34 -29 -38 -53q0 -23 21 -23h424q45 0 45 -45v-94z" />
    <glyph glyph-name="three" unicode="3" 
d="M842 -84q0 -197 -177 -295q-85 -47 -192 -47q-109 0 -198 55t-134 152q-6 13 -6 24q0 25 19 37l88 56q13 8 28 8q21 0 33 -19q72 -118 170 -118q64 0 107 41.5t43 105.5v203q0 147 -172 147q-45 0 -45 45v121q0 45 45 45q74 0 121 36q51 40 51 112q0 64 -43 105.5
t-107 41.5q-100 0 -172 -119q-11 -18 -33 -18q-15 0 -28 8l-88 55q-19 12 -19 37q0 12 6 25q97 207 334 207q222 0 323 -172q46 -79 46 -170q0 -138 -94 -232q-11 -9 -11 -20q0 -8 11 -21q94 -92 94 -233v-203z" />
    <glyph glyph-name="four" unicode="4" 
d="M842 45q0 -45 -45 -45h-56q-22 0 -22 -23v-337q0 -46 -45 -46h-129q-45 0 -45 46v337q0 23 -23 23h-327q-46 0 -46 45v88q0 39 13 74l260 694q17 45 61 45h123q39 0 39 -51l-258 -682q0 -29 20 -29h115q23 0 23 23v20q0 48 24 92l37 68q22 41 64 41h49q45 0 45 -45v-176
q0 -23 22 -23h56q45 0 45 -45v-94z" />
    <glyph glyph-name="five" unicode="5" 
d="M842 -84q0 -197 -177 -295q-85 -47 -192 -47q-109 0 -198 55t-134 152q-6 13 -6 24q0 25 19 37l88 56q13 8 28 8q21 0 33 -19q72 -118 170 -118q64 0 107 41.5t43 105.5v303q0 64 -43 106t-107 42q-120 0 -166 -146q-11 -35 -55 -35l-111 31q-37 10 -37 62v577
q0 90 91 90h534q45 0 45 -45v-94q0 -45 -45 -45h-383q-22 0 -22 -23v-178q0 -18 26 -18q63 18 123 18q222 0 323 -172q46 -79 46 -170v-303z" />
    <glyph glyph-name="six" unicode="6" 
d="M842 322q0 -198 -177 -295q-85 -47 -192 -47q-221 0 -322 172q-47 78 -47 170v204q0 276 152 521q116 188 254 278q41 27 82 27h113q38 0 38 -37q0 -21 -14 -33q-129 -113 -211.5 -207t-111.5 -180q0 -31 16 -31q28 4 51 4q221 0 323 -171q46 -79 46 -171v-204zM623 322
v204q0 64 -43 106t-107 42q-63 0 -106 -42.5t-43 -105.5v-204q0 -63 43 -105.5t106 -42.5q64 0 107 42t43 106z" />
    <glyph glyph-name="seven" unicode="7" 
d="M842 831q0 -42 -31 -100q-119 -225 -178 -401q-60 -179 -87 -388q-11 -80 -16 -188q-1 -22 -1 -59l-1 -55q0 -46 -45 -46h-129q-45 0 -45 52q-1 13 4 110q10 195 49 391q37 182 132 394q46 103 98 186q8 16 8 21q0 14 -22 14h-428q-46 0 -46 45v94q0 45 46 45h571
q121 0 121 -115z" />
    <glyph glyph-name="eight" unicode="8" 
d="M842 322q0 -198 -177 -295q-85 -47 -192 -47q-221 0 -322 172q-47 78 -47 170v198q0 146 101 240q12 11 12 24q0 10 -6 19q-70 101 -70 190v68q0 177 167 269q77 42 165 42q190 0 288 -157q44 -72 44 -154v-68q0 -93 -70 -190q-6 -8 -6 -19q0 -13 12 -24
q101 -92 101 -240v-198zM586 993v68q0 51 -31.5 84t-81.5 33t-81.5 -33t-31.5 -84v-68q0 -50 31.5 -83t81.5 -33t81.5 33t31.5 83zM623 322v198q0 65 -42.5 107.5t-107.5 42.5q-64 0 -106.5 -43t-42.5 -107v-198q0 -63 43 -105.5t106 -42.5q64 0 107 42t43 106z" />
    <glyph glyph-name="nine" unicode="9" 
d="M842 420q0 -173 -75 -365q-80 -206 -251 -368q-47 -44 -80 -66q-41 -27 -82 -27h-112q-39 0 -39 37q0 21 14 33q128 110 211 207.5t113 179.5q0 31 -17 31q-28 -4 -51 -4q-222 0 -323 173q-46 78 -46 169v205q0 197 177 295q85 47 192 47q222 0 323 -172q46 -79 46 -170
v-205zM623 420v205q0 64 -43 105.5t-107 41.5q-63 0 -106 -42.5t-43 -104.5v-205q0 -63 43 -105.5t106 -42.5q64 0 107 42t43 106z" />
    <glyph glyph-name="colon" unicode=":" 
d="M584 807q0 -45 -45 -45h-131q-46 0 -46 45v94q0 45 46 45h131q45 0 45 -45v-94zM584 45q0 -45 -45 -45h-131q-46 0 -46 45v94q0 45 46 45h131q45 0 45 -45v-94z" />
    <glyph glyph-name="semicolon" unicode=";" 
d="M584 807q0 -45 -45 -45h-131q-46 0 -46 45v94q0 45 46 45h131q45 0 45 -45v-94zM584 82q0 -153 -106 -260t-247 -111q-45 -1 -45 45v88q0 46 45 58q57 16 94 67.5t37 112.5v57q0 45 46 45h131q45 0 45 -45v-57z" />
    <glyph glyph-name="less" unicode="&#x3c;" 
d="M842 150q0 -46 -39 -46q-5 0 -17 5l-565 237q-117 49 -117 127q0 77 117 127l565 240q13 4 17 4q39 0 39 -45v-86q0 -51 -45 -70l-369 -154q-18 -8 -18 -16q0 -9 18 -16l369 -152q45 -19 45 -69v-86z" />
    <glyph glyph-name="equal" unicode="=" 
d="M842 586q0 -45 -45 -45h-647q-46 0 -46 45v94q0 45 46 45h647q45 0 45 -45v-94zM842 266q0 -45 -45 -45h-647q-46 0 -46 45v94q0 46 46 46h647q45 0 45 -46v-94z" />
    <glyph glyph-name="greater" unicode="&#x3e;" 
d="M842 473q0 -78 -117 -127l-565 -237q-12 -5 -17 -5q-39 0 -39 46v86q0 50 46 69l368 152q19 8 19 16q0 10 -19 16l-368 154q-46 19 -46 70v86q0 45 39 45q8 0 17 -4l565 -240q117 -50 117 -127z" />
    <glyph glyph-name="question" unicode="?" 
d="M823 1026q0 -236 -229 -328q-29 -12 -29 -43v-204q0 -45 -45 -45h-131q-45 0 -45 45v297q0 105 115 129q145 30 145 149q0 60 -44.5 104t-104.5 44q-98 0 -166 -117q-15 -20 -41 -23q-13 0 -25 8l-88 60q-18 12 -18 37q0 15 6 26q112 207 332 207q218 0 321 -174
q47 -81 47 -172zM565 45q0 -45 -45 -45h-131q-45 0 -45 45v94q0 45 45 45h131q45 0 45 -45v-94z" />
    <glyph glyph-name="at" unicode="@" 
d="M842 340q0 -65 -38.5 -105t-103.5 -40q-36 0 -67 22q-8 8 -17 8q-8 0 -18 -8q-54 -41 -125 -41q-91 0 -145 62q-52 58 -52 151v168q0 93 52 151q54 62 145 62q92 0 146 -61q51 -58 51 -152v-190q0 -25 18 -25q19 0 19 25v258q0 131 -118 189q-54 26 -116 26
q-135 0 -201 -101q-32 -50 -32 -114v-303q0 -97 69 -158q65 -58 164 -58q48 0 109 27q31 14 51 14q57 0 57 -57q-4 -39 -41 -63q-74 -47 -176 -47q-221 0 -322 172q-47 78 -47 170v303q0 197 177 295q85 47 192 47q222 0 323 -172q46 -79 46 -170v-285zM518 389v168
q0 55 -45 55t-45 -55v-168q0 -55 45 -55t45 55z" />
    <glyph glyph-name="A" unicode="A" 
d="M842 45q0 -45 -45 -45h-129q-45 0 -45 45v313q0 23 -23 23h-254q-22 0 -22 -23v-313q0 -45 -45 -45h-129q-46 0 -46 45v582q0 196 178 294q84 46 191 46q221 0 323 -171q46 -79 46 -169v-582zM623 588v37q0 64 -43 105.5t-107 41.5q-63 0 -106 -42.5t-43 -104.5v-37
q0 -23 22 -23h254q23 0 23 23z" />
    <glyph glyph-name="B" unicode="B" 
d="M842 283q0 -151 -112 -232q-99 -71 -257 -71q-221 0 -322 172q-47 78 -47 170v579q0 45 46 45h79q25 0 37 -18q6 -8 29 -8q89 47 178 47q159 0 257 -71q112 -80 112 -232q0 -100 -82 -175q-8 -7 -8 -14q1 -4 8 -14q82 -78 82 -178zM623 283q0 98 -172 98q-45 0 -45 45v94
q0 45 45 45q172 0 172 99q0 108 -150 108q-63 0 -106 -42.5t-43 -104.5v-303q0 -63 43 -105.5t106 -42.5q150 0 150 109z" />
    <glyph glyph-name="C" unicode="C" 
d="M829 184q-44 -119 -179 -175q-70 -29 -156 -29q-221 0 -322 172q-47 78 -47 170v303q0 197 178 295q85 47 191 47q168 0 269 -104q46 -48 66 -101q7 -19 7 -27q0 -23 -19 -35l-96 -63q-12 -8 -29 -8q-19 0 -33 18q-37 64 -65 89q-40 36 -100 36q-64 0 -107 -41.5
t-43 -105.5v-303q0 -64 43 -106t107 -42q60 0 100 36q28 25 65 89q13 18 33 18q17 0 29 -8l96 -63q19 -12 19 -35q0 -8 -7 -27z" />
    <glyph glyph-name="D" unicode="D" 
d="M842 322q0 -141 -102 -230q-106 -92 -267 -92h-278q-91 0 -91 90v766q0 90 91 90h278q166 0 267.5 -91.5t101.5 -229.5v-303zM623 322v303q0 63 -42.5 100t-107.5 37h-127q-22 0 -22 -23v-532q0 -23 22 -23h127q64 0 107 37.5t43 100.5z" />
    <glyph glyph-name="E" unicode="E" 
d="M825 184q-44 -117 -178 -174q-70 -30 -158 -30q-220 0 -321 172q-47 78 -47 170v303q0 197 177 295q84 47 191 47q167 0 270 -105q46 -47 66 -100q6 -16 6 -27q0 -23 -18 -35l-96 -63q-12 -8 -29 -8q-19 0 -33 18q-73 125 -166 125q-63 0 -106 -42.5t-43 -104.5v-37
q0 -23 22 -23h201q45 0 45 -45v-94q0 -45 -45 -45h-201q-22 0 -22 -23v-36q0 -63 43 -105.5t106 -42.5q93 0 166 125q13 18 33 18q17 0 29 -8l96 -63q18 -12 18 -35q0 -11 -6 -27z" />
    <glyph glyph-name="F" unicode="F" 
d="M874 795l-47 -78q-16 -27 -41 -27q-8 0 -24 8q-118 74 -230 74q-63 0 -106 -42.5t-43 -104.5v-37q0 -23 23 -23h286q45 0 45 -45v-94q0 -45 -45 -45h-286q-23 0 -23 -23v-313q0 -45 -45 -45h-129q-45 0 -45 45v580q0 197 177 295q84 47 191 47q130 0 246 -56
q52 -25 84 -51q21 -17 21 -39q0 -16 -9 -26z" />
    <glyph glyph-name="G" unicode="G" 
d="M842 322q0 -198 -177 -295q-85 -47 -192 -47q-221 0 -322 172q-47 78 -47 170v303q0 197 177 295q85 47 192 47q109 0 200 -52q100 -56 136 -153q6 -16 6 -27q0 -23 -18 -35l-97 -63q-12 -8 -28 -8q-22 0 -33 18q-39 65 -65 89q-41 36 -101 36q-63 0 -106 -42.5
t-43 -104.5v-303q0 -63 43 -105.5t106 -42.5q64 0 107 42t43 106v36q0 23 -23 23h-82q-45 0 -45 45v94q0 45 45 45h279q45 0 45 -45v-198z" />
    <glyph glyph-name="H" unicode="H" 
d="M842 45q0 -45 -45 -45h-129q-45 0 -45 45v313q0 23 -23 23h-254q-22 0 -22 -23v-313q0 -45 -45 -45h-129q-46 0 -46 45v856q0 45 46 45h129q45 0 45 -45v-313q0 -23 22 -23h254q23 0 23 23v313q0 45 45 45h129q45 0 45 -45v-856z" />
    <glyph glyph-name="I" unicode="I" 
d="M842 45q0 -45 -45 -45h-647q-46 0 -46 45v94q0 45 46 45h192q23 0 23 23v532q0 23 -23 23h-125q-45 0 -45 45v94q0 45 45 45h512q45 0 45 -45v-94q0 -45 -45 -45h-125q-22 0 -22 -23v-532q0 -23 22 -23h193q45 0 45 -45v-94z" />
    <glyph glyph-name="J" unicode="J" 
d="M776 -84q0 -197 -176 -295q-85 -47 -192 -47q-197 0 -330 107q-21 17 -21 38q0 17 9 27l47 78q16 26 41 26q10 0 24 -8q122 -73 230 -73q63 0 106 42t43 105v823q0 23 -22 23h-170q-46 0 -46 45v94q0 45 46 45h321q90 0 90 -90v-940z" />
    <glyph glyph-name="K" unicode="K" 
d="M842 45q0 -45 -45 -45h-129q-45 0 -45 45v191q0 64 -43 105.5t-107 41.5q-63 0 -106 -42.5t-43 -104.5v-191q0 -45 -45 -45h-129q-46 0 -46 45v856q0 45 46 45h129q45 0 45 -45v-309q0 -31 32 -31q35 0 58 39l180 303q26 43 68 43h143q35 0 39 -31q0 -11 -8 -24
l-195 -311q-8 -13 -8 -21q0 -13 20 -22q87 -41 138 -122.5t51 -178.5v-191z" />
    <glyph glyph-name="L" unicode="L" 
d="M842 45q0 -45 -45 -45h-527q-90 0 -90 90v811q0 45 45 45h129q45 0 45 -45v-694q0 -23 23 -23h375q45 0 45 -45v-94z" />
    <glyph glyph-name="M" unicode="M" 
d="M842 45q0 -45 -45 -45h-119q-45 0 -45 45v387q0 17 -10 17q-9 0 -17 -17l-65 -145q-26 -58 -68 -58q-41 0 -67 58l-66 145q-8 17 -16 17q-11 0 -11 -17v-387q0 -45 -45 -45h-118q-46 0 -46 45v856q0 45 46 45h133q39 0 59 -45l113 -258q9 -20 18 -20q10 0 19 20l112 258
q20 45 60 45h133q45 0 45 -45v-856z" />
    <glyph glyph-name="N" unicode="N" 
d="M842 45q0 -45 -45 -45h-121q-41 0 -68 45l-268 449q-10 16 -18 16q-9 0 -9 -16v-449q0 -45 -45 -45h-118q-46 0 -46 45v856q0 45 46 45h129q32 0 59 -45l268 -442q10 -17 19 -17q8 0 8 17v442q0 45 45 45h119q45 0 45 -45v-856z" />
    <glyph glyph-name="O" unicode="O" 
d="M842 322q0 -198 -177 -295q-85 -47 -192 -47q-221 0 -322 172q-47 78 -47 170v303q0 197 177 295q85 47 192 47q222 0 323 -172q46 -79 46 -170v-303zM623 322v303q0 64 -43 105.5t-107 41.5q-63 0 -106 -42.5t-43 -104.5v-303q0 -63 43 -105.5t106 -42.5q64 0 107 42
t43 106z" />
    <glyph glyph-name="P" unicode="P" 
d="M842 625q0 -198 -177 -295q-85 -47 -192 -47q-60 0 -123 18q-26 0 -26 -18v-238q0 -45 -45 -45h-129q-46 0 -46 45v580q0 197 177 295q85 47 192 47q222 0 323 -172q46 -79 46 -170zM623 625q0 64 -43 105.5t-107 41.5q-63 0 -106 -42.5t-43 -104.5q0 -63 43 -105.5
t106 -42.5q64 0 107 42t43 106z" />
    <glyph glyph-name="Q" unicode="Q" 
d="M842 436q0 -135 -90 -227q-13 -13 -13 -21q0 -12 27 -14q45 -4 45 -45v-104q0 -45 -45 -45q-140 0 -217 86q-25 28 -76 28q-222 0 -323 173q-46 78 -46 169v189q0 197 177 295q85 47 192 47q222 0 323 -172q46 -79 46 -170v-189zM623 477v148q0 64 -43 105.5t-107 41.5
q-63 0 -106 -42.5t-43 -104.5v-189q0 -53 33 -94t85 -51q23 0 23 14q0 18 -37 23q-45 7 -45 45v104q0 45 45 45q90 0 166 -57q8 -6 16 -6q13 0 13 18z" />
    <glyph glyph-name="R" unicode="R" 
d="M842 45q0 -45 -45 -45h-129q-45 0 -45 45v188q0 64 -43 106t-107 42h-127q-22 0 -22 -23v-313q0 -45 -45 -45h-129q-46 0 -46 45v580q0 197 177 295q85 47 192 47q159 0 257 -71q112 -80 112 -232q0 -100 -82 -175q-10 -9 -10 -18q0 -8 10 -18q82 -79 82 -220v-188z
M623 664q0 108 -150 108q-63 0 -106 -42.5t-43 -104.5v-37q0 -23 22 -23h127q150 0 150 99z" />
    <glyph glyph-name="S" unicode="S" 
d="M842 297q0 -152 -113 -239q-102 -78 -256 -78q-162 0 -280 108q-53 48 -84 100q-9 12 -9 27q0 23 21 37l82 55q12 8 24 8q22 0 35 -20q95 -121 211 -121q62 0 103 30q47 33 47 93q0 80 -101 97q-27 4 -51 5q-220 11 -304 143q-40 62 -40 142q0 161 157 242q79 41 189 41
q186 0 295 -136q12 -12 12 -28q0 -20 -18 -33l-88 -63q-10 -9 -27 -9q-21 0 -37 15q-63 61 -137 61q-49 0 -87 -20q-46 -25 -46 -70q0 -87 135 -92q223 -8 319 -136q48 -65 48 -159z" />
    <glyph glyph-name="T" unicode="T" 
d="M842 807q0 -45 -45 -45h-193q-22 0 -22 -23v-694q0 -45 -45 -45h-127q-45 0 -45 45v694q0 23 -23 23h-192q-46 0 -46 45v94q0 45 46 45h647q45 0 45 -45v-94z" />
    <glyph glyph-name="U" unicode="U" 
d="M842 322q0 -198 -177 -295q-85 -47 -192 -47q-221 0 -322 172q-47 78 -47 170v579q0 45 46 45h129q45 0 45 -45v-579q0 -63 43 -105.5t106 -42.5q64 0 107 42t43 106v579q0 45 45 45h129q45 0 45 -45v-579z" />
    <glyph glyph-name="V" unicode="V" 
d="M844 899l-264 -825q-30 -94 -107 -94q-76 0 -106 94l-265 825q0 47 43 47h129q40 0 54 -45l127 -416q9 -28 18 -28q11 0 19 28l126 416q14 45 54 45h129q43 0 43 -47z" />
    <glyph glyph-name="W" unicode="W" 
d="M842 150q0 -71 -32 -117q-37 -53 -105 -53q-59 0 -99 32q-45 34 -88 131l-24 54q-13 22 -21 22q-10 0 -20 -22l-25 -54q-38 -83 -68 -114q-46 -49 -118 -49q-68 0 -105 53q-33 47 -33 117v751q0 45 46 45h118q45 0 45 -45v-500q0 -18 11 -18q9 0 18 18l51 103
q39 78 80 78t80 -78l51 -103q9 -18 19 -18t10 18v500q0 45 45 45h119q45 0 45 -45v-751z" />
    <glyph glyph-name="X" unicode="X" 
d="M836 57q4 -7 4 -20q0 -37 -35 -37h-137q-48 0 -72 45l-100 191q-14 26 -23 26q-8 0 -22 -26l-101 -191q-24 -45 -71 -45h-136q-39 0 -39 37q0 12 7 20l225 400v32l-225 400q-5 6 -5 20q0 37 37 37h142q41 0 65 -45l101 -190q14 -27 22 -27q9 0 23 27l100 190q24 45 66 45
h143q35 0 35 -37q0 -13 -4 -20l-226 -400v-32z" />
    <glyph glyph-name="Y" unicode="Y" 
d="M836 889l-232 -397q-22 -38 -22 -82v-365q0 -45 -45 -45h-127q-45 0 -45 45v365q0 42 -23 82l-231 397q-5 6 -5 20q0 37 37 37h142q41 0 65 -45l101 -190q14 -27 22 -27q9 0 23 27l100 190q24 45 66 45h143q37 0 37 -35q0 -12 -6 -22z" />
    <glyph glyph-name="Z" unicode="Z" 
d="M842 45q0 -45 -45 -45h-492q-84 0 -142.5 55t-58.5 138q0 77 56 143l336 397q6 9 6 15q0 14 -21 14h-250q-45 0 -45 45v94q0 45 45 45h445q121 0 121 -112q0 -55 -39 -103l-406 -495q-8 -12 -8 -23q0 -29 29 -29h424q45 0 45 -45v-94z" />
    <glyph glyph-name="bracketleft" unicode="[" 
d="M676 -225q0 -45 -45 -45h-232q-90 0 -90 90v1442q0 90 90 90h232q45 0 45 -45v-95q0 -45 -45 -45h-80q-23 0 -23 -22v-1208q0 -23 23 -23h80q45 0 45 -45v-94z" />
    <glyph glyph-name="backslash" unicode="\" 
d="M838 -217q0 -53 -41 -53h-117q-42 0 -57 45l-517 1523q0 54 44 54h118q43 0 58 -45z" />
    <glyph glyph-name="bracketright" unicode="]" 
d="M637 -180q0 -90 -90 -90h-232q-45 0 -45 45v94q0 45 45 45h80q23 0 23 23v1208q0 22 -23 22h-80q-45 0 -45 45v95q0 45 45 45h232q90 0 90 -90v-1442z" />
    <glyph glyph-name="asciicircum" unicode="^" 
d="M838 690q4 -9 4 -16q0 -39 -45 -39h-86q-51 0 -70 45l-152 369q-7 18 -16 18q-8 0 -16 -18l-154 -369q-19 -45 -70 -45h-86q-45 0 -45 39q0 8 4 16l240 565q50 117 127 117q78 0 127 -117z" />
    <glyph glyph-name="underscore" unicode="_" 
d="M948 -369h-950v185h950v-185z" />
    <glyph glyph-name="grave" unicode="`" 
d="M649 1178q15 -24 15 -45q0 -52 -64 -52q-53 0 -113 47l-184 144q-20 16 -20 39q0 41 45 41h149q62 0 96 -54z" />
    <glyph glyph-name="a" unicode="a" 
d="M842 45q0 -45 -45 -45h-80q-25 0 -37 18q-6 9 -29 9q-86 -47 -178 -47q-221 0 -322 172q-47 78 -47 170q0 196 177 294q84 46 192 46q61 0 129 -27q19 0 19 14q-8 55 -50 89t-98 34q-88 0 -182 -49q-6 -4 -21 -4q-24 3 -37 24l-53 88q-6 10 -6 19q0 27 29 43
q136 74 270 74q222 0 323 -172q46 -79 46 -170v-580zM623 322q0 64 -42.5 104.5t-107.5 40.5q-63 0 -106 -41t-43 -104t43 -105.5t106 -42.5q64 0 107 42t43 106z" />
    <glyph glyph-name="b" unicode="b" 
d="M842 283q0 -151 -112 -232q-99 -71 -257 -71q-221 0 -322 172q-47 78 -47 170v985q0 45 46 45h129q45 0 45 -45v-340q0 -19 26 -19q66 19 123 19q159 0 257 -71q112 -80 112 -232q0 -100 -82 -175q-6 -5 -6 -14q0 -8 6 -14q82 -78 82 -178zM623 283q0 98 -172 98
q-45 0 -45 45v94q0 45 45 45q172 0 172 99q0 108 -150 108q-63 0 -106 -42.5t-43 -104.5v-303q0 -63 43 -105.5t106 -42.5q150 0 150 109z" />
    <glyph glyph-name="c" unicode="c" 
d="M829 184q-44 -119 -179 -175q-70 -29 -156 -29q-221 0 -322 172q-47 78 -47 170v303q0 197 178 295q85 47 191 47q168 0 269 -104q46 -48 66 -101q7 -19 7 -27q0 -23 -19 -35l-96 -63q-12 -8 -29 -8q-19 0 -33 18q-37 64 -65 89q-40 36 -100 36q-64 0 -107 -41.5
t-43 -105.5v-303q0 -64 43 -106t107 -42q60 0 100 36q28 25 65 89q13 18 33 18q17 0 29 -8l96 -63q19 -12 19 -35q0 -8 -7 -27z" />
    <glyph glyph-name="d" unicode="d" 
d="M842 45q0 -45 -45 -45h-80q-25 0 -37 18q-6 9 -29 9q-86 -47 -178 -47q-221 0 -322 172q-47 78 -47 170v303q0 197 177 295q85 47 192 47q56 0 123 -19q27 0 27 19v340q0 45 45 45h129q45 0 45 -45v-1262zM623 322v303q0 64 -43 105.5t-107 41.5q-63 0 -106 -42.5
t-43 -104.5v-303q0 -63 43 -105.5t106 -42.5q64 0 107 42t43 106z" />
    <glyph glyph-name="e" unicode="e" 
d="M842 471q0 -90 -90 -90h-406q-22 0 -22 -23v-36q0 -63 43 -105.5t106 -42.5q60 0 101 36q26 24 65 89q11 18 33 18q16 0 28 -8l97 -63q18 -12 18 -35q0 -11 -6 -27q-36 -97 -136 -153q-91 -51 -200 -51q-221 0 -322 172q-47 78 -47 170v303q0 197 177 295q85 47 192 47
q222 0 323 -172q46 -79 46 -170v-154zM623 588v37q0 64 -43 105.5t-107 41.5q-63 0 -106 -42.5t-43 -104.5v-37q0 -23 22 -23h254q23 0 23 23z" />
    <glyph glyph-name="f" unicode="f" 
d="M940 1200l-47 -78q-16 -26 -41 -26q-7 0 -25 8q-119 74 -229 74q-63 0 -106 -42.5t-43 -105.5v-61q0 -23 22 -23h285q45 0 45 -45v-94q0 -45 -45 -45h-285q-22 0 -22 -23v-694q0 -45 -46 -45h-129q-45 0 -45 45v694q0 23 -22 23h-37q-45 0 -45 45v94q0 45 45 45h37
q22 0 22 23v61q0 197 177 295q85 47 192 47q203 0 330 -106q20 -17 20 -39q0 -14 -8 -27z" />
    <glyph glyph-name="g" unicode="g" 
d="M842 -115q0 -153 -121 -237q-106 -74 -266 -74q-175 0 -326 111q-22 16 -25 43q0 10 7 18l53 86q17 27 37 27q14 0 24 -9q124 -77 228 -77q170 0 170 112q0 115 -170 115h-150q-45 0 -45 45v250q0 41 -25 63q-129 114 -129 267q0 197 177 295q85 47 192 47
q23 0 63.5 -7.5t53.5 -7.5q29 0 89 31q64 33 118 33q45 0 45 -45v-109q0 -39 -29 -45q-11 -4 -14 -18q0 -5 4 -17q39 -83 39 -161q0 -139 -104 -238q-101 -95 -240 -100q-23 -1 -23 -23v-47q0 -23 23 -23q208 -2 300 -140q44 -68 44 -165zM623 625q0 64 -43 105.5t-107 41.5
q-63 0 -106 -42.5t-43 -104.5q0 -63 43 -105.5t106 -42.5q64 0 107 42t43 106z" />
    <glyph glyph-name="h" unicode="h" 
d="M842 45q0 -45 -45 -45h-129q-45 0 -45 45v580q0 64 -43 105.5t-107 41.5q-63 0 -106 -42.5t-43 -104.5v-580q0 -45 -45 -45h-129q-46 0 -46 45v1262q0 45 46 45h129q45 0 45 -45v-340q0 -19 26 -19q66 19 123 19q222 0 323 -172q46 -79 46 -170v-580z" />
    <glyph glyph-name="i" unicode="i" 
d="M422 1212q0 -45 -45 -45h-129q-45 0 -45 45v95q0 45 45 45h129q45 0 45 -45v-95zM809 113q6 -8 6 -25q0 -26 -18 -39q-96 -69 -226 -69q-220 0 -321 172q-47 78 -47 170v579q0 45 45 45h129q45 0 45 -45v-579q0 -63 43 -105.5t106 -42.5q48 0 105 35q16 10 29 10
q20 0 34 -18z" />
    <glyph glyph-name="j" unicode="j" 
d="M717 1212q0 -45 -45 -45h-129q-45 0 -45 45v95q0 45 45 45h129q45 0 45 -45v-95zM717 -84q0 -197 -177 -295q-85 -47 -192 -47q-200 0 -330 107q-20 16 -20 38q0 14 8 27l47 78q16 26 41 26q11 0 25 -8q122 -73 229 -73q64 0 107 41.5t43 105.5v985q0 45 45 45h129
q45 0 45 -45v-985z" />
    <glyph glyph-name="k" unicode="k" 
d="M842 45q0 -45 -45 -45h-129q-45 0 -45 45v191q0 64 -43 105.5t-107 41.5q-63 0 -106 -42.5t-43 -104.5v-191q0 -45 -45 -45h-129q-46 0 -46 45v1262q0 45 46 45h129q45 0 45 -45v-715q0 -31 32 -31q35 0 58 39l180 303q26 43 68 43h143q35 0 39 -31q0 -11 -8 -24
l-195 -311q-8 -13 -8 -21q0 -13 20 -22q87 -41 138 -122.5t51 -178.5v-191z" />
    <glyph glyph-name="l" unicode="l" 
d="M852 117q-108 -137 -289 -137q-220 0 -321 172q-47 78 -47 170v985q0 45 45 45h129q45 0 45 -45v-985q0 -63 43 -105.5t106 -42.5t123 62q19 20 41 20q18 0 35 -12l86 -60q16 -11 16 -32q0 -20 -12 -35z" />
    <glyph glyph-name="m" unicode="m" 
d="M842 45q0 -45 -45 -45h-109q-45 0 -45 45v696q0 37 -41 37t-41 -37v-561q0 -45 -45 -45h-86q-45 0 -45 45v561q0 37 -41 37t-41 -37v-696q0 -45 -45 -45h-108q-46 0 -46 45v696q0 106 61 166t167 60q66 0 129 -41h24q63 41 129 41q107 0 167.5 -59.5t60.5 -166.5v-696z
" />
    <glyph glyph-name="n" unicode="n" 
d="M842 45q0 -45 -45 -45h-129q-45 0 -45 45v580q0 64 -43 105.5t-107 41.5q-63 0 -106 -42.5t-43 -104.5v-580q0 -45 -45 -45h-129q-46 0 -46 45v856q0 45 46 45h79q25 0 37 -18q6 -8 29 -8q89 47 178 47q222 0 323 -172q46 -79 46 -170v-580z" />
    <glyph glyph-name="o" unicode="o" 
d="M842 322q0 -198 -177 -295q-85 -47 -192 -47q-221 0 -322 172q-47 78 -47 170v303q0 197 177 295q85 47 192 47q222 0 323 -172q46 -79 46 -170v-303zM623 322v303q0 64 -43 105.5t-107 41.5q-63 0 -106 -42.5t-43 -104.5v-303q0 -63 43 -105.5t106 -42.5q64 0 107 42
t43 106z" />
    <glyph glyph-name="p" unicode="p" 
d="M842 322q0 -198 -177 -295q-85 -47 -192 -47q-60 0 -123 18q-26 0 -26 -18v-340q0 -46 -45 -46h-129q-46 0 -46 46v985q0 197 177 295q85 47 192 47q222 0 323 -172q46 -79 46 -170v-303zM623 322v303q0 64 -43 105.5t-107 41.5q-63 0 -106 -42.5t-43 -104.5v-303
q0 -63 43 -105.5t106 -42.5q64 0 107 42t43 106z" />
    <glyph glyph-name="q" unicode="q" 
d="M842 322q0 -104 -62.5 -196.5t-171.5 -145.5q-26 -13 -26 -39v-21q0 -47 28 -89t72.5 -54.5t44.5 -44.5v-115q0 -44 -45 -43q-118 2 -216 105q-101 105 -101 241v21q0 23 -27 39q-102 48 -166 138q-68 95 -68 204v303q0 197 177 295q85 47 192 47q222 0 323 -172
q46 -79 46 -170v-303zM623 322v303q0 64 -43 105.5t-107 41.5q-63 0 -106 -42.5t-43 -104.5v-303q0 -63 43 -105.5t106 -42.5q64 0 107 42t43 106z" />
    <glyph glyph-name="r" unicode="r" 
d="M872 795l-47 -78q-16 -27 -41 -27q-8 0 -24 8q-118 74 -230 74q-63 0 -106 -42.5t-43 -104.5v-580q0 -45 -45 -45h-129q-45 0 -45 45v580q0 197 177 295q84 47 191 47q130 0 246 -56q52 -25 84 -51q21 -17 21 -39q0 -16 -9 -26z" />
    <glyph glyph-name="s" unicode="s" 
d="M842 297q0 -152 -113 -239q-102 -78 -256 -78q-162 0 -280 108q-53 48 -84 100q-9 12 -9 27q0 23 21 37l82 55q12 8 24 8q22 0 35 -20q95 -121 211 -121q62 0 103 30q47 33 47 93q0 80 -101 97q-27 4 -51 5q-220 11 -304 143q-40 62 -40 142q0 161 157 242q79 41 189 41
q186 0 295 -136q12 -12 12 -28q0 -20 -18 -33l-88 -63q-10 -9 -27 -9q-21 0 -37 15q-63 61 -137 61q-49 0 -87 -20q-46 -25 -46 -70q0 -87 135 -92q223 -8 319 -136q48 -65 48 -159z" />
    <glyph glyph-name="t" unicode="t" 
d="M864 117q-106 -137 -289 -137q-220 0 -321 172q-47 78 -47 170v417q0 23 -23 23h-37q-45 0 -45 45v94q0 45 45 45h37q23 0 23 23v202q0 46 45 46h129q45 0 45 -46v-202q0 -23 23 -23h217q45 0 45 -45v-94q0 -45 -45 -45h-217q-23 0 -23 -23v-417q0 -63 43 -105.5
t106 -42.5q64 0 123 62q19 20 41 20q18 0 35 -12l86 -60q17 -12 17 -32q0 -18 -13 -35z" />
    <glyph glyph-name="u" unicode="u" 
d="M842 45q0 -45 -45 -45h-80q-25 0 -37 18q-6 9 -29 9q-86 -47 -178 -47q-221 0 -322 172q-47 78 -47 170v579q0 45 46 45h129q45 0 45 -45v-579q0 -63 43 -105.5t106 -42.5q64 0 107 42t43 106v579q0 45 45 45h129q45 0 45 -45v-856z" />
    <glyph glyph-name="v" unicode="v" 
d="M844 899l-264 -825q-30 -94 -107 -94q-76 0 -106 94l-265 825q0 47 43 47h129q40 0 54 -45l127 -416q9 -28 18 -28q11 0 19 28l126 416q14 45 54 45h129q43 0 43 -47z" />
    <glyph glyph-name="w" unicode="w" 
d="M842 205q0 -107 -60.5 -166t-167.5 -59q-67 0 -129 40h-24q-62 -40 -129 -40q-106 0 -167 59.5t-61 165.5v696q0 45 46 45h108q45 0 45 -45v-696q0 -37 41 -37t41 37v291q0 45 45 45h86q45 0 45 -45v-291q0 -37 41 -37t41 37v696q0 45 45 45h109q45 0 45 -45v-696z" />
    <glyph glyph-name="x" unicode="x" 
d="M842 45q0 -45 -45 -45h-129q-45 0 -45 45v188q0 64 -43 106t-107 42q-63 0 -106 -42.5t-43 -105.5v-188q0 -45 -45 -45h-129q-46 0 -46 45v188q0 92 49 173.5t130 121.5q20 10 20 23q0 6 -8 20l-184 318q-5 6 -5 20q0 37 37 37h142q41 0 65 -45l101 -190q14 -27 22 -27
q9 0 23 27l100 190q24 45 66 45h143q37 0 37 -35q0 -12 -6 -22l-185 -318q-8 -14 -8 -20q0 -13 21 -23q105 -51 155 -172q23 -59 23 -123v-188z" />
    <glyph glyph-name="y" unicode="y" 
d="M842 -84q0 -197 -177 -295q-85 -47 -192 -47q-200 0 -330 107q-20 16 -20 38q0 14 8 27l47 78q16 26 41 26q11 0 25 -8q122 -73 229 -73q64 0 107 41.5t43 105.5v64q0 18 -27 18q-63 -18 -123 -18q-221 0 -322 172q-47 78 -47 170v579q0 45 46 45h129q45 0 45 -45v-579
q0 -63 43 -105.5t106 -42.5q64 0 107 42t43 106v579q0 45 45 45h129q45 0 45 -45v-985z" />
    <glyph glyph-name="z" unicode="z" 
d="M842 45q0 -45 -45 -45h-492q-84 0 -142.5 55t-58.5 138q0 77 56 143l336 397q6 9 6 15q0 14 -21 14h-250q-45 0 -45 45v94q0 45 45 45h445q121 0 121 -112q0 -55 -39 -103l-406 -495q-8 -12 -8 -23q0 -29 29 -29h424q45 0 45 -45v-94z" />
    <glyph glyph-name="braceleft" unicode="{" 
d="M748 -246q0 -45 -46 -45q-221 0 -322 172q-46 79 -46 170v375q0 23 -23 23h-67q-45 0 -45 45v94q0 45 45 45h67q23 0 23 22v375q0 197 177 295q84 47 191 47q46 0 46 -45v-104q0 -45 -46 -45q-63 0 -106 -42.5t-43 -105.5v-979q0 -62 43 -104.5t106 -42.5q46 0 46 -45
v-105z" />
    <glyph glyph-name="bar" unicode="|" 
d="M584 -360q0 -46 -45 -46h-131q-46 0 -46 46v1667q0 45 46 45h131q45 0 45 -45v-1667z" />
    <glyph glyph-name="braceright" unicode="}" 
d="M748 494q0 -45 -46 -45h-67q-23 0 -23 -23v-375q0 -197 -176 -295q-85 -47 -192 -47q-45 0 -45 45v105q0 45 45 45q63 0 106 42t43 105v979q0 64 -42.5 106t-106.5 42q-45 0 -45 45v104q0 45 45 45q221 0 322 -172q46 -79 46 -170v-375q0 -22 23 -22h67q46 0 46 -45v-94z
" />
    <glyph glyph-name="asciitilde" unicode="~" 
d="M842 457q0 -34 -33 -54q-89 -55 -201 -55q-50 0 -132 29q-95 33 -138 33q-81 0 -180 -58q-7 -4 -19 -4q-35 0 -35 39v94q0 40 33 62q83 55 201 55q45 0 105 -18l102 -32q37 -11 63 -11q80 0 176 55q13 6 25 6q33 -4 33 -35v-106z" />
    <glyph glyph-name="DEL" horiz-adv-x="0" 
 />
    <glyph glyph-name="nonbreakingspace" unicode="&#xa0;" 
 />
    <glyph glyph-name="exclamdown" unicode="&#xa1;" 
d="M584 807q0 -45 -45 -45h-131q-46 0 -46 45v94q0 45 46 45h131q45 0 45 -45v-94zM584 -360q0 -46 -45 -46h-131q-46 0 -46 46v856q0 45 46 45h131q45 0 45 -45v-856z" />
    <glyph glyph-name="cent" unicode="&#xa2;" 
d="M829 184q-22 -59 -80.5 -112.5t-119.5 -71.5q-25 -8 -25 -33v-57q0 -45 -45 -45h-129q-45 0 -45 45v59q0 23 -25 31q-145 48 -206 185q-29 65 -29 137v303q0 149 111 249q30 27 132 74q17 8 17 27v61q0 45 45 45h129q45 0 45 -45v-61q0 -22 21 -29q156 -53 204 -184
q7 -19 7 -27q0 -23 -19 -35l-96 -63q-12 -8 -29 -8q-19 0 -33 18q-37 64 -65 89q-40 36 -100 36q-64 0 -107 -41.5t-43 -105.5v-303q0 -64 43 -106t107 -42q60 0 100 36q28 25 65 89q13 18 33 18q17 0 29 -8l96 -63q19 -12 19 -35q0 -8 -7 -27z" />
    <glyph glyph-name="sterling" unicode="&#xa3;" 
d="M842 45q0 -45 -45 -45h-647q-46 0 -46 45v94q0 45 46 45h57q22 0 22 23v151q0 23 -22 23h-27q-45 0 -45 45v94q0 45 45 45h27q22 0 22 23v67q0 176 153 267q75 45 177 45q183 0 268 -138q9 -18 9 -30q0 -21 -17 -33l-82 -57q-16 -11 -28 -11q-19 0 -35 17q-55 57 -115 57
q-48 0 -79 -34t-31 -83v-67q0 -23 22 -23h92q45 0 45 -45v-94q0 -45 -45 -45h-92q-22 0 -22 -23v-151q0 -23 22 -23h326q45 0 45 -45v-94z" />
    <glyph glyph-name="currency" unicode="&#xa4;" horiz-adv-x="0" 
 />
    <glyph glyph-name="yen" unicode="&#xa5;" 
d="M836 889l-244 -418q-6 -10 -6 -22q0 -19 24 -19h156q45 0 45 -45v-94q0 -45 -45 -45h-162q-22 0 -22 -23v-178q0 -45 -45 -45h-127q-45 0 -45 45v178q0 23 -23 23h-162q-45 0 -45 45v94q0 45 45 45h156q24 0 24 19q0 12 -6 22l-243 418q-5 6 -5 20q0 37 37 37h142
q41 0 65 -45l101 -190q14 -27 22 -27q9 0 23 27l100 190q24 45 66 45h143q37 0 37 -35q0 -12 -6 -22z" />
    <glyph glyph-name="brokenbar" unicode="&#xa6;" 
d="M584 664q0 -46 -45 -46h-131q-46 0 -46 46v643q0 45 46 45h131q45 0 45 -45v-643zM584 -360q0 -46 -45 -46h-131q-46 0 -46 46v643q0 45 46 45h131q45 0 45 -45v-643z" />
    <glyph glyph-name="section" unicode="&#xa7;" 
d="M842 33q0 -197 -173 -282q-85 -42 -196 -42q-159 0 -278 107q-53 47 -86 102q-9 10 -9 27q0 23 21 37l82 55q12 8 24 8q21 0 35 -20q86 -121 211 -121q61 0 103 29q47 33 47 92q0 103 -150 112q-220 14 -305 154q-41 67 -41 158q0 106 82 188q10 10 10 16t-10 17
q-82 87 -82 182q0 165 159 248q79 41 187 41q182 0 295 -135q12 -14 12 -29q0 -20 -18 -33l-88 -63q-10 -9 -27 -9q-21 0 -37 15q-65 61 -137 61q-133 0 -133 -92q0 -87 135 -96q367 -23 367 -311q0 -102 -82 -191q-8 -9 -8 -16q0 -9 8 -17q82 -78 82 -192zM623 449
q0 114 -150 114q-56 0 -93 -29q-40 -31 -40 -85q0 -115 133 -115q150 0 150 115z" />
    <glyph glyph-name="dieresis" unicode="&#xa8;" 
d="M762 1126q0 -45 -45 -45h-131q-45 0 -45 45v95q0 45 45 45h131q45 0 45 -45v-95zM406 1126q0 -45 -46 -45h-131q-45 0 -45 45v95q0 45 45 45h131q46 0 46 -45v-95z" />
    <glyph glyph-name="copyright" unicode="&#xa9;" 
d="M842 322q0 -198 -177 -295q-85 -47 -192 -47q-221 0 -322 172q-47 78 -47 170v303q0 197 177 295q85 47 192 47q222 0 323 -172q46 -79 46 -170v-303zM651 268q8 16 8 31q0 22 -16 33q-8 6 -25 6q-25 -4 -38 -21q-40 -53 -97 -53q-46 0 -77 33.5t-31 79.5v192
q0 47 30.5 80t77.5 33q57 0 95 -53q17 -23 38 -23q9 0 25 8q16 12 16 33q0 17 -6 29q-48 94 -168 94q-87 0 -144.5 -57t-57.5 -144v-192q0 -87 58 -144t144 -57q108 0 168 92z" />
    <glyph glyph-name="ordfeminine" unicode="&#xaa;" 
d="M584 653q0 -45 -45 -45h-131q-46 0 -46 45v654q0 45 46 45h131q45 0 45 -45v-654zM584 -360q0 -46 -45 -46h-131q-46 0 -46 46v653q0 45 46 45h131q45 0 45 -45v-653z" />
    <glyph glyph-name="guillemotleft" unicode="&#xab;" 
d="M721 315q0 -45 -45 -45q-120 0 -177 103q-26 46 -26 100q0 86 59 144.5t144 58.5q45 0 45 -45v-66q0 -42 -43 -45q-49 -4 -49 -47t49 -47q43 -3 43 -45v-66zM451 315q0 -45 -45 -45q-120 0 -177 103q-26 46 -26 100q0 86 59 144.5t144 58.5q45 0 45 -45v-66
q0 -42 -43 -45q-50 -4 -50 -47t50 -47q43 -3 43 -45v-66z" />
    <glyph glyph-name="logicalnot" unicode="&#xac;" horiz-adv-x="0" 
 />
    <glyph glyph-name="minus" unicode="&#xad;" 
d="M731 426q0 -45 -45 -45h-426q-45 0 -45 45v94q0 45 45 45h426q45 0 45 -45v-94z" />
    <glyph glyph-name="minus" unicode="&#x2212;" 
d="M731 426q0 -45 -45 -45h-426q-45 0 -45 45v94q0 45 45 45h426q45 0 45 -45v-94z" />
    <glyph glyph-name="registered" unicode="&#xae;" 
d="M842 322q0 -198 -177 -295q-85 -47 -192 -47q-221 0 -322 172q-47 78 -47 170v303q0 197 177 295q85 47 192 47q222 0 323 -172q46 -79 46 -170v-303zM676 252v86q0 92 -53 137q-9 10 -9 14q0 6 9 13q53 40 53 110q0 109 -98 153q-47 21 -105 21q-89 0 -146 -56.5
t-57 -145.5v-332q0 -45 47 -45q48 0 48 45v332q0 49 28.5 81.5t77.5 32.5q111 0 111 -86q0 -82 -109 -82q-41 0 -41 -41q0 -40 41 -40q49 0 79 -31.5t30 -79.5v-86q0 -45 47 -45t47 45z" />
    <glyph glyph-name="macron" unicode="&#xaf;" 
d="M762 1126q0 -45 -45 -45h-488q-45 0 -45 45v95q0 45 45 45h488q45 0 45 -45v-95z" />
    <glyph glyph-name="macron" unicode="&#x2c9;" 
d="M762 1126q0 -45 -45 -45h-488q-45 0 -45 45v95q0 45 45 45h488q45 0 45 -45v-95z" />
    <glyph glyph-name="degree" unicode="&#xb0;" 
d="M676 1169q0 -85 -59 -143.5t-144 -58.5t-144 58.5t-59 143.5q0 86 58.5 144.5t144.5 58.5q120 0 177 -100q26 -48 26 -103zM522 1169q0 50 -49 50t-49 -50q0 -47 49 -47t49 47z" />
    <glyph glyph-name="plusminus" unicode="&#xb1;" 
d="M842 530q0 -45 -45 -45h-191q-22 0 -22 -22v-209q0 -45 -45 -45h-131q-46 0 -46 45v209q0 22 -22 22h-190q-46 0 -46 45v95q0 45 46 45h190q22 0 22 22v209q0 45 46 45h131q45 0 45 -45v-209q0 -22 22 -22h191q45 0 45 -45v-95zM842 45q0 -45 -45 -45h-647q-46 0 -46 45
v94q0 45 46 45h647q45 0 45 -45v-94z" />
    <glyph glyph-name="twosuperior" unicode="&#xb2;" 
d="M696 856q0 -45 -45 -45h-356q-45 0 -45 45q0 191 209 250q80 22 80 65q0 58 -66 58q-45 0 -82 -53q-16 -23 -41 -23q-12 0 -26 8l-35 21q-21 13 -21 35q0 12 8 26q31 53 83.5 84t111.5 31q126 0 187 -89q28 -43 28 -98q0 -141 -145 -180q-62 -17 -74 -26q-4 -4 -4 -11
q0 -8 12 -8h176q45 0 45 -45v-45z" />
    <glyph glyph-name="threesuperior" unicode="&#xb3;" 
d="M682 975q0 -84 -68 -130q-59 -40 -147 -40q-136 0 -199 113q-8 14 -8 24q0 25 25 39l32 18q12 7 25 7q22 0 37 -21q36 -51 88 -51q59 0 59 41q0 39 -59 39q-45 0 -45 45v45q0 45 45 45q53 0 53 39q0 41 -53 41q-46 0 -84 -49q-25 -19 -39 -19q-11 0 -25 6l-34 23
q-21 11 -21 37q0 12 8 26q60 105 195 105q84 0 141 -42q64 -47 64 -128q0 -56 -41 -94q-6 -3 -6 -11q1 -5 6 -10q51 -39 51 -98z" />
    <glyph glyph-name="acute" unicode="&#xb4;" 
d="M641 1272l-184 -144q-60 -47 -113 -47q-63 0 -63 52q0 23 14 45l76 120q34 54 96 54h149q46 0 46 -41q0 -23 -21 -39z" />
    <glyph glyph-name="mu" unicode="&#xb5;" 
d="M842 45q0 -45 -45 -45h-80q-25 0 -37 18q-6 9 -29 9q-86 -47 -178 -47q-60 0 -123 18q-26 0 -26 -18v-340q0 -46 -45 -46h-129q-46 0 -46 46v1261q0 45 46 45h129q45 0 45 -45v-579q0 -63 43 -105.5t106 -42.5q64 0 107 42t43 106v579q0 45 45 45h129q45 0 45 -45v-856z
" />
    <glyph glyph-name="mu" unicode="&#x3bc;" 
d="M842 45q0 -45 -45 -45h-80q-25 0 -37 18q-6 9 -29 9q-86 -47 -178 -47q-60 0 -123 18q-26 0 -26 -18v-340q0 -46 -45 -46h-129q-46 0 -46 46v1261q0 45 46 45h129q45 0 45 -45v-579q0 -63 43 -105.5t106 -42.5q64 0 107 42t43 106v579q0 45 45 45h129q45 0 45 -45v-856z
" />
    <glyph glyph-name="paragraph" unicode="&#xb6;" 
d="M842 1212q0 -45 -45 -45h-74q-23 0 -23 -22v-1460q0 -91 -90 -91h-274q-90 0 -90 91v946q0 78 -47 129q-95 102 -95 241q0 211 182 307q84 44 187 44h324q45 0 45 -45v-95zM516 -199v1344q0 22 -22 22q-64 0 -64 -30v-1336q0 -22 23 -22h41q22 0 22 22z" />
    <glyph glyph-name="periodcentered" unicode="&#xb7;" 
d="M584 426q0 -45 -45 -45h-131q-46 0 -46 45v94q0 45 46 45h131q45 0 45 -45v-94z" />
    <glyph glyph-name="periodcentered" unicode="&#x2219;" 
d="M584 426q0 -45 -45 -45h-131q-46 0 -46 45v94q0 45 46 45h131q45 0 45 -45v-94z" />
    <glyph glyph-name="cedilla" unicode="&#xb8;" 
d="M647 -184q0 -75 -53 -123.5t-129 -48.5q-102 0 -158 90q-6 10 -6 24q0 23 16 35l41 31q13 10 25 10q20 0 40 -23.5t42 -23.5q29 0 29 29q0 20 -29 30q-76 27 -76 97v53q0 45 45 45h78q45 0 45 -45q0 -31 16 -41q74 -46 74 -139z" />
    <glyph glyph-name="onesuperior" unicode="&#xb9;" 
d="M696 856q0 -45 -45 -45h-356q-45 0 -45 45v45q0 45 45 45h76q22 0 22 23v170q0 22 -22 22h-13q-45 0 -45 37q0 18 17 41l57 76q28 37 72 37h47q45 0 45 -45v-338q0 -23 22 -23h78q45 0 45 -45v-45z" />
    <glyph glyph-name="ordmasculine" unicode="&#xba;" 
d="M842 426q0 -45 -45 -45h-647q-46 0 -46 45v94q0 45 46 45h647q45 0 45 -45v-94z" />
    <glyph glyph-name="guillemotright" unicode="&#xbb;" 
d="M743 473q0 -86 -58.5 -144.5t-143.5 -58.5q-45 0 -45 45v66q0 42 43 45q49 4 49 47t-49 47q-43 3 -43 45v66q0 45 45 45q118 0 176 -101q26 -47 26 -102zM473 473q0 -86 -59 -144.5t-144 -58.5q-45 0 -45 45v66q0 42 43 45q49 3 49 47t-49 47q-43 3 -43 45v66q0 45 45 45
q119 0 177 -101q26 -47 26 -102z" />
    <glyph glyph-name="onequarter" unicode="&#xbc;" 
d="M842 145v45q0 46 -45 46q-25 0 -25 22v57q0 45 -41 45q-34 0 -71 -35t-37 -69q0 -23 -23 -23h-10q-19 0 -19 29l99 230q4 9 4 16q0 33 -37 33h-72q-37 0 -55 -43l-92 -219q-21 -50 -21 -89q0 -90 107 -90h96q23 0 23 -22v-33q0 -45 45 -45h59q45 0 45 45v33q0 19 21 21
q28 4 38.5 14.5t10.5 31.5zM551 856v45q0 45 -45 45h-78q-22 0 -22 23v338q0 45 -46 45h-47q-43 0 -71 -37l-58 -76q-16 -21 -16 -41q0 -37 45 -37h12q23 0 23 -22v-170q0 -23 -23 -23h-75q-46 0 -46 -45v-45q0 -45 46 -45h356q45 0 45 45zM834 840l-33 49q-15 22 -35 22
q-14 0 -27 -8l-612 -393q-23 -15 -23 -37q0 -10 11 -27l32 -49q16 -24 35 -24q11 0 27 10l612 393q23 12 23 35q0 13 -10 29z" />
    <glyph glyph-name="onehalf" unicode="&#xbd;" 
d="M842 45v45q0 45 -45 45h-176q-11 0 -15 8q0 5 6 11q14 10 74 26q145 39 145 180q0 87 -66 139q-61 48 -149 48q-59 0 -116 -34q-48 -30 -78 -81q-8 -14 -8 -26q0 -23 20 -35l35 -21q14 -8 27 -8q25 0 41 23q37 53 81 53q66 0 66 -58q0 -43 -80 -65q-209 -59 -209 -250
q0 -45 45 -45h357q45 0 45 45zM551 856v45q0 45 -45 45h-78q-22 0 -22 23v338q0 45 -46 45h-47q-43 0 -71 -37l-58 -76q-16 -21 -16 -41q0 -37 45 -37h12q23 0 23 -22v-170q0 -23 -23 -23h-75q-46 0 -46 -45v-45q0 -45 46 -45h356q45 0 45 45zM834 840l-33 49q-15 22 -35 22
q-14 0 -27 -8l-612 -393q-23 -15 -23 -37q0 -10 11 -27l32 -49q16 -24 35 -24q11 0 27 10l612 393q23 12 23 35q0 13 -10 29z" />
    <glyph glyph-name="threequarters" unicode="&#xbe;" 
d="M842 145v45q0 46 -45 46q-25 0 -25 22v57q0 45 -41 45q-34 0 -71 -35t-37 -69q0 -23 -23 -23h-10q-19 0 -19 29l99 230q4 9 4 16q0 33 -37 33h-72q-37 0 -55 -43l-92 -219q-21 -50 -21 -89q0 -90 107 -90h96q23 0 23 -22v-33q0 -45 45 -45h59q45 0 45 45v33q0 19 21 21
q28 4 38.5 14.5t10.5 31.5zM524 975q0 60 -51 98q-6 6 -6 10q0 8 6 11q41 36 41 94q0 80 -64 128q-58 42 -141 42q-134 0 -194 -105q-9 -16 -9 -26q0 -23 21 -37l35 -23q8 -4 24 -4q26 0 39 17q36 49 84 49q53 0 53 -41q0 -39 -53 -39q-45 0 -45 -45v-45q0 -45 45 -45
q60 0 60 -39q0 -41 -60 -41q-50 0 -88 51q-15 21 -37 21q-11 0 -24 -7l-33 -18q-25 -14 -25 -39q0 -8 9 -24q65 -113 198 -113q89 0 147 40q68 46 68 130zM834 872l-33 50q-15 22 -35 22q-14 0 -27 -8l-612 -393q-23 -15 -23 -37q0 -10 11 -27l32 -49q16 -24 35 -24
q11 0 27 10l612 393q23 12 23 35q0 13 -10 28z" />
    <glyph glyph-name="questiondown" unicode="&#xbf;" 
d="M614 807q0 -45 -45 -45h-131q-45 0 -45 45v94q0 45 45 45h131q45 0 45 -45v-94zM836 -219q-113 -207 -332 -207t-322 175q-47 80 -47 171q0 160 115 258q54 46 115 70q28 11 28 43v205q0 45 45 45h131q45 0 45 -45v-297q0 -106 -114 -129q-146 -30 -146 -150
q0 -59 45 -103t105 -44q97 0 166 116q12 20 41 23q12 0 24 -8l88 -60q19 -13 19 -37q0 -15 -6 -26z" />
    <glyph glyph-name="Agrave" unicode="&#xc0;" 
d="M842 45q0 -45 -45 -45h-129q-45 0 -45 45v313q0 23 -23 23h-254q-22 0 -22 -23v-313q0 -45 -45 -45h-129q-46 0 -46 45v582q0 196 178 294q84 46 191 46q221 0 323 -171q46 -79 46 -169v-582zM623 588v37q0 64 -43 105.5t-107 41.5q-63 0 -106 -42.5t-43 -104.5v-37
q0 -23 22 -23h254q23 0 23 23zM565 1178q15 -24 15 -45q0 -52 -64 -52q-53 0 -113 47l-184 144q-20 16 -20 39q0 41 45 41h149q62 0 96 -54z" />
    <glyph glyph-name="Aacute" unicode="&#xc1;" 
d="M842 45q0 -45 -45 -45h-129q-45 0 -45 45v313q0 23 -23 23h-254q-22 0 -22 -23v-313q0 -45 -45 -45h-129q-46 0 -46 45v582q0 196 178 294q84 46 191 46q221 0 323 -171q46 -79 46 -169v-582zM623 588v37q0 64 -43 105.5t-107 41.5q-63 0 -106 -42.5t-43 -104.5v-37
q0 -23 22 -23h254q23 0 23 23zM717 1272l-184 -144q-60 -47 -113 -47q-63 0 -63 52q0 23 14 45l76 120q34 54 96 54h149q46 0 46 -41q0 -23 -21 -39z" />
    <glyph glyph-name="Acircumflex" unicode="&#xc2;" 
d="M676 1126q0 -45 -45 -45h-66q-42 0 -45 43q-3 50 -47 50t-47 -50q-3 -43 -45 -43h-66q-45 0 -45 45q0 120 103 177q46 26 100 26q86 0 144.5 -59t58.5 -144zM842 45q0 -45 -45 -45h-129q-45 0 -45 45v313q0 23 -23 23h-254q-22 0 -22 -23v-313q0 -45 -45 -45h-129
q-46 0 -46 45v582q0 196 178 294q84 46 191 46q221 0 323 -171q46 -79 46 -169v-582zM623 588v37q0 64 -43 105.5t-107 41.5q-63 0 -106 -42.5t-43 -104.5v-37q0 -23 22 -23h254q23 0 23 23z" />
    <glyph glyph-name="Atilde" unicode="&#xc3;" 
d="M696 1180q0 -38 -32 -60q-57 -39 -123 -39q-26 0 -70.5 17.5t-64.5 17.5q-48 0 -99 -35q-9 -6 -22 -6q-35 0 -35 41v62q0 44 33 67q49 35 123 35q27 0 73.5 -16.5t61.5 -16.5q39 0 92 35q15 10 31 10q32 0 32 -37v-75zM842 45q0 -45 -45 -45h-129q-45 0 -45 45v313
q0 23 -23 23h-254q-22 0 -22 -23v-313q0 -45 -45 -45h-129q-46 0 -46 45v582q0 196 178 294q84 46 191 46q221 0 323 -171q46 -79 46 -169v-582zM623 588v37q0 64 -43 105.5t-107 41.5q-63 0 -106 -42.5t-43 -104.5v-37q0 -23 22 -23h254q23 0 23 23z" />
    <glyph glyph-name="Adieresis" unicode="&#xc4;" 
d="M762 1126q0 -45 -45 -45h-131q-45 0 -45 45v95q0 45 45 45h131q45 0 45 -45v-95zM406 1126q0 -45 -46 -45h-131q-45 0 -45 45v95q0 45 45 45h131q46 0 46 -45v-95zM842 45q0 -45 -45 -45h-129q-45 0 -45 45v313q0 23 -23 23h-254q-22 0 -22 -23v-313q0 -45 -45 -45h-129
q-46 0 -46 45v582q0 196 178 294q84 46 191 46q221 0 323 -171q46 -79 46 -169v-582zM623 588v37q0 64 -43 105.5t-107 41.5q-63 0 -106 -42.5t-43 -104.5v-37q0 -23 22 -23h254q23 0 23 23z" />
    <glyph glyph-name="Aring" unicode="&#xc5;" 
d="M842 45q0 -45 -45 -45h-129q-45 0 -45 45v313q0 23 -23 23h-254q-22 0 -22 -23v-313q0 -45 -45 -45h-129q-46 0 -46 45v582q0 196 178 294q84 46 191 46q221 0 323 -171q46 -79 46 -169v-582zM623 588v37q0 64 -43 105.5t-107 41.5q-63 0 -106 -42.5t-43 -104.5v-37
q0 -23 22 -23h254q23 0 23 23zM676 1217q0 -86 -58.5 -144.5t-144.5 -58.5t-144.5 58.5t-58.5 144.5t58.5 144t144.5 58q120 0 177 -100q26 -47 26 -102zM522 1217q0 49 -49 49t-49 -49q0 -48 49 -48t49 48z" />
    <glyph glyph-name="AE" unicode="&#xc6;" horiz-adv-x="1892" 
d="M1804 322q0 -198 -177 -295q-84 -47 -191 -47q-221 0 -322 172q-47 78 -47 170v36q0 23 -23 23h-180q-22 0 -22 -23v-313q0 -45 -45 -45h-129q-45 0 -45 45v313q0 23 -23 23h-254q-22 0 -22 -23v-313q0 -45 -45 -45h-129q-46 0 -46 45v582q0 196 178 294q84 46 191 46
q221 0 323 -171q46 -79 46 -169v-39q0 -23 22 -23h180q23 0 23 23v37q0 197 178 295q85 47 191 47q221 0 322 -172q46 -79 46 -170q0 -45 -45 -45h-129q-45 0 -45 45q0 63 -43 105t-106 42q-64 0 -107 -41.5t-43 -105.5v-37q0 -23 23 -23h159q45 0 45 -45v-94q0 -45 -45 -45
h-159q-23 0 -23 -23v-36q0 -64 43 -106t107 -42t106.5 42t42.5 106q0 45 45 45h129q45 0 45 -45zM623 588v37q0 64 -43 105.5t-107 41.5q-63 0 -106 -42.5t-43 -104.5v-37q0 -23 22 -23h254q23 0 23 23z" />
    <glyph glyph-name="Ccedilla" unicode="&#xc7;" 
d="M829 184q-57 -151 -233 -192q-18 -4 -18 -19q0 -9 14 -18q74 -45 74 -139q0 -102 -90 -150q-42 -22 -93 -22q-107 0 -157 90q-7 10 -7 24q0 22 17 35l41 31q13 10 24 10q23 0 39 -22q19 -25 43 -25q29 0 29 29q0 21 -29 30q-75 25 -75 97v12q0 32 -31 41
q-113 34 -181 121q-71 89 -71 205v303q0 197 178 295q85 47 191 47q168 0 269 -104q46 -48 66 -101q7 -19 7 -27q0 -23 -19 -35l-96 -63q-12 -8 -29 -8q-19 0 -33 18q-37 64 -65 89q-40 36 -100 36q-64 0 -107 -41.5t-43 -105.5v-303q0 -64 43 -106t107 -42q60 0 100 36
q28 25 65 89q13 18 33 18q17 0 29 -8l96 -63q19 -12 19 -35q0 -8 -7 -27z" />
    <glyph glyph-name="Egrave" unicode="&#xc8;" 
d="M825 184q-44 -117 -178 -174q-70 -30 -158 -30q-220 0 -321 172q-47 78 -47 170v303q0 197 177 295q84 47 191 47q167 0 270 -105q46 -47 66 -100q6 -16 6 -27q0 -23 -18 -35l-96 -63q-12 -8 -29 -8q-19 0 -33 18q-73 125 -166 125q-63 0 -106 -42.5t-43 -104.5v-37
q0 -23 22 -23h201q45 0 45 -45v-94q0 -45 -45 -45h-201q-22 0 -22 -23v-36q0 -63 43 -105.5t106 -42.5q93 0 166 125q13 18 33 18q17 0 29 -8l96 -63q18 -12 18 -35q0 -11 -6 -27zM567 1178q15 -24 15 -45q0 -52 -64 -52q-53 0 -113 47l-184 144q-20 16 -20 39q0 41 45 41
h149q62 0 96 -54z" />
    <glyph glyph-name="Eacute" unicode="&#xc9;" 
d="M707 1272q20 16 20 39q0 41 -45 41h-150q-62 0 -96 -54l-76 -120q-14 -22 -14 -45q0 -52 64 -52q52 0 112 47zM823 184q6 16 6 27q0 23 -18 35l-96 63q-12 8 -29 8q-19 0 -33 -18q-73 -125 -166 -125q-63 0 -106 42.5t-43 105.5v36q0 23 22 23h201q45 0 45 45v94
q0 45 -45 45h-201q-22 0 -22 23v37q0 62 43 104.5t106 42.5q93 0 166 -125q13 -18 33 -18q17 0 29 8l96 63q18 12 18 35q0 11 -6 27q-44 118 -180 176q-70 29 -156 29q-221 0 -322 -172q-46 -79 -46 -170v-303q0 -198 177 -295q84 -47 191 -47q170 0 271 105q45 46 65 99z
" />
    <glyph glyph-name="Ecircumflex" unicode="&#xca;" 
d="M676 1126q0 -45 -45 -45h-66q-42 0 -45 43q-3 50 -47 50t-47 -50q-3 -43 -45 -43h-66q-45 0 -45 45q0 120 103 177q46 26 100 26q86 0 144.5 -59t58.5 -144zM825 184q-44 -117 -178 -174q-70 -30 -158 -30q-220 0 -321 172q-47 78 -47 170v303q0 197 177 295
q84 47 191 47q167 0 270 -105q46 -47 66 -100q6 -16 6 -27q0 -23 -18 -35l-96 -63q-12 -8 -29 -8q-19 0 -33 18q-73 125 -166 125q-63 0 -106 -42.5t-43 -104.5v-37q0 -23 22 -23h201q45 0 45 -45v-94q0 -45 -45 -45h-201q-22 0 -22 -23v-36q0 -63 43 -105.5t106 -42.5
q93 0 166 125q13 18 33 18q17 0 29 -8l96 -63q18 -12 18 -35q0 -11 -6 -27z" />
    <glyph glyph-name="Edieresis" unicode="&#xcb;" 
d="M762 1126q0 -45 -45 -45h-131q-45 0 -45 45v95q0 45 45 45h131q45 0 45 -45v-95zM406 1126q0 -45 -46 -45h-131q-45 0 -45 45v95q0 45 45 45h131q46 0 46 -45v-95zM825 184q-44 -117 -178 -174q-70 -30 -158 -30q-220 0 -321 172q-47 78 -47 170v303q0 197 177 295
q84 47 191 47q167 0 270 -105q46 -47 66 -100q6 -16 6 -27q0 -23 -18 -35l-96 -63q-12 -8 -29 -8q-19 0 -33 18q-73 125 -166 125q-63 0 -106 -42.5t-43 -104.5v-37q0 -23 22 -23h201q45 0 45 -45v-94q0 -45 -45 -45h-201q-22 0 -22 -23v-36q0 -63 43 -105.5t106 -42.5
q93 0 166 125q13 18 33 18q17 0 29 -8l96 -63q18 -12 18 -35q0 -11 -6 -27z" />
    <glyph glyph-name="Igrave" unicode="&#xcc;" 
d="M842 45q0 -45 -45 -45h-647q-46 0 -46 45v94q0 45 46 45h192q23 0 23 23v532q0 23 -23 23h-125q-45 0 -45 45v94q0 45 45 45h512q45 0 45 -45v-94q0 -45 -45 -45h-125q-22 0 -22 -23v-532q0 -23 22 -23h193q45 0 45 -45v-94zM549 1178q15 -24 15 -45q0 -52 -64 -52
q-53 0 -113 47l-184 144q-20 16 -20 39q0 41 45 41h149q62 0 96 -54z" />
    <glyph glyph-name="Iacute" unicode="&#xcd;" 
d="M842 45q0 -45 -45 -45h-647q-46 0 -46 45v94q0 45 46 45h192q23 0 23 23v532q0 23 -23 23h-125q-45 0 -45 45v94q0 45 45 45h512q45 0 45 -45v-94q0 -45 -45 -45h-125q-22 0 -22 -23v-532q0 -23 22 -23h193q45 0 45 -45v-94zM723 1272l-184 -144q-60 -47 -113 -47
q-63 0 -63 52q0 23 14 45l76 120q34 54 96 54h149q46 0 46 -41q0 -23 -21 -39z" />
    <glyph glyph-name="Icircumflex" unicode="&#xce;" 
d="M676 1126q0 -45 -45 -45h-66q-42 0 -45 43q-3 50 -47 50t-47 -50q-3 -43 -45 -43h-66q-45 0 -45 45q0 120 103 177q46 26 100 26q86 0 144.5 -59t58.5 -144zM842 45q0 -45 -45 -45h-647q-46 0 -46 45v94q0 45 46 45h192q23 0 23 23v532q0 23 -23 23h-125q-45 0 -45 45v94
q0 45 45 45h512q45 0 45 -45v-94q0 -45 -45 -45h-125q-22 0 -22 -23v-532q0 -23 22 -23h193q45 0 45 -45v-94z" />
    <glyph glyph-name="Idieresis" unicode="&#xcf;" 
d="M762 1126q0 -45 -45 -45h-131q-45 0 -45 45v95q0 45 45 45h131q45 0 45 -45v-95zM406 1126q0 -45 -46 -45h-131q-45 0 -45 45v95q0 45 45 45h131q46 0 46 -45v-95zM842 45q0 -45 -45 -45h-647q-46 0 -46 45v94q0 45 46 45h192q23 0 23 23v532q0 23 -23 23h-125
q-45 0 -45 45v94q0 45 45 45h512q45 0 45 -45v-94q0 -45 -45 -45h-125q-22 0 -22 -23v-532q0 -23 22 -23h193q45 0 45 -45v-94z" />
    <glyph glyph-name="Eth" unicode="&#xd0;" 
d="M842 322q0 -141 -102 -230q-106 -92 -267 -92h-278q-91 0 -91 90v268q0 23 -22 23q-45 0 -45 45v94q0 45 45 45q22 0 22 23v268q0 90 91 90h278q166 0 267.5 -91.5t101.5 -229.5v-303zM623 322v303q0 63 -42.5 100t-107.5 37h-127q-22 0 -22 -23v-151q0 -23 22 -23h82
q45 0 45 -45v-94q0 -45 -45 -45h-82q-22 0 -22 -23v-151q0 -23 22 -23h127q64 0 107 37.5t43 100.5z" />
    <glyph glyph-name="Ntilde" unicode="&#xd1;" 
d="M696 1180q0 -38 -32 -60q-57 -39 -123 -39q-26 0 -70.5 17.5t-64.5 17.5q-48 0 -99 -35q-9 -6 -22 -6q-35 0 -35 41v62q0 44 33 67q49 35 123 35q27 0 73.5 -16.5t61.5 -16.5q39 0 92 35q15 10 31 10q32 0 32 -37v-75zM842 45q0 -45 -45 -45h-121q-41 0 -68 45l-268 449
q-10 16 -18 16q-9 0 -9 -16v-449q0 -45 -45 -45h-118q-46 0 -46 45v856q0 45 46 45h129q32 0 59 -45l268 -442q10 -17 19 -17q8 0 8 17v442q0 45 45 45h119q45 0 45 -45v-856z" />
    <glyph glyph-name="Ograve" unicode="&#xd2;" 
d="M842 322q0 -198 -177 -295q-85 -47 -192 -47q-221 0 -322 172q-47 78 -47 170v303q0 197 177 295q85 47 192 47q222 0 323 -172q46 -79 46 -170v-303zM623 322v303q0 64 -43 105.5t-107 41.5q-63 0 -106 -42.5t-43 -104.5v-303q0 -63 43 -105.5t106 -42.5q64 0 107 42
t43 106zM557 1178q15 -24 15 -45q0 -52 -64 -52q-53 0 -113 47l-184 144q-20 16 -20 39q0 41 45 41h149q62 0 96 -54z" />
    <glyph glyph-name="Oacute" unicode="&#xd3;" 
d="M842 322q0 -198 -177 -295q-85 -47 -192 -47q-221 0 -322 172q-47 78 -47 170v303q0 197 177 295q85 47 192 47q222 0 323 -172q46 -79 46 -170v-303zM623 322v303q0 64 -43 105.5t-107 41.5q-63 0 -106 -42.5t-43 -104.5v-303q0 -63 43 -105.5t106 -42.5q64 0 107 42
t43 106zM707 1272l-184 -144q-60 -47 -113 -47q-63 0 -63 52q0 23 14 45l76 120q34 54 96 54h149q46 0 46 -41q0 -23 -21 -39z" />
    <glyph glyph-name="Ocircumflex" unicode="&#xd4;" 
d="M676 1126q0 -45 -45 -45h-66q-42 0 -45 43q-3 50 -47 50t-47 -50q-3 -43 -45 -43h-66q-45 0 -45 45q0 120 103 177q46 26 100 26q86 0 144.5 -59t58.5 -144zM842 322q0 -198 -177 -295q-85 -47 -192 -47q-221 0 -322 172q-47 78 -47 170v303q0 197 177 295q85 47 192 47
q222 0 323 -172q46 -79 46 -170v-303zM623 322v303q0 64 -43 105.5t-107 41.5q-63 0 -106 -42.5t-43 -104.5v-303q0 -63 43 -105.5t106 -42.5q64 0 107 42t43 106z" />
    <glyph glyph-name="Otilde" unicode="&#xd5;" 
d="M696 1180q0 -38 -32 -60q-57 -39 -123 -39q-26 0 -70.5 17.5t-64.5 17.5q-48 0 -99 -35q-9 -6 -22 -6q-35 0 -35 41v62q0 44 33 67q49 35 123 35q27 0 73.5 -16.5t61.5 -16.5q39 0 92 35q15 10 31 10q32 0 32 -37v-75zM842 322q0 -198 -177 -295q-85 -47 -192 -47
q-221 0 -322 172q-47 78 -47 170v303q0 197 177 295q85 47 192 47q222 0 323 -172q46 -79 46 -170v-303zM623 322v303q0 64 -43 105.5t-107 41.5q-63 0 -106 -42.5t-43 -104.5v-303q0 -63 43 -105.5t106 -42.5q64 0 107 42t43 106z" />
    <glyph glyph-name="Odieresis" unicode="&#xd6;" 
d="M762 1126q0 -45 -45 -45h-131q-45 0 -45 45v95q0 45 45 45h131q45 0 45 -45v-95zM406 1126q0 -45 -46 -45h-131q-45 0 -45 45v95q0 45 45 45h131q46 0 46 -45v-95zM842 322q0 -198 -177 -295q-85 -47 -192 -47q-221 0 -322 172q-47 78 -47 170v303q0 197 177 295
q85 47 192 47q222 0 323 -172q46 -79 46 -170v-303zM623 322v303q0 64 -43 105.5t-107 41.5q-63 0 -106 -42.5t-43 -104.5v-303q0 -63 43 -105.5t106 -42.5q64 0 107 42t43 106z" />
    <glyph glyph-name="multiply" unicode="&#xd7;" 
d="M768 700q14 -14 14 -30q0 -19 -14 -33l-135 -135q-8 -8 -8 -15q1 -6 8 -16l147 -149q17 -14 17 -31q0 -16 -17 -33l-92 -92q-14 -14 -33 -14q-16 0 -30 14l-150 147q-6 9 -14 9q-6 0 -17 -9l-135 -135q-17 -14 -30 -14q-15 0 -33 14l-68 68q-14 17 -14 33q0 12 14 30
l135 135q9 9 9 17t-9 14l-147 150q-14 14 -14 30q0 19 14 33l92 92q17 17 33 17q17 0 31 -17l149 -147q11 -8 16 -8q7 0 15 8l135 135q14 14 33 14q16 0 30 -14z" />
    <glyph glyph-name="Oslash" unicode="&#xd8;" 
d="M842 322q0 -198 -177 -295q-85 -47 -192 -47q-221 0 -322 172q-47 78 -47 170v303q0 197 177 295q85 47 192 47q222 0 323 -172q46 -79 46 -170v-303zM557 700q10 15 10 23q0 14 -16 27q-28 22 -78 22q-63 0 -106 -42.5t-43 -104.5v-138q0 -20 16 -20q7 0 14 8zM623 322
v137q0 20 -17 20q-7 0 -14 -8l-203 -225q-10 -11 -10 -23q0 -13 16 -26q29 -23 78 -23q64 0 107 42t43 106z" />
    <glyph glyph-name="Ugrave" unicode="&#xd9;" 
d="M842 322q0 -198 -177 -295q-85 -47 -192 -47q-221 0 -322 172q-47 78 -47 170v579q0 45 46 45h129q45 0 45 -45v-579q0 -63 43 -105.5t106 -42.5q64 0 107 42t43 106v579q0 45 45 45h129q45 0 45 -45v-579zM583 1178q15 -24 15 -45q0 -52 -64 -52q-53 0 -113 47l-184 144
q-20 16 -20 39q0 41 45 41h149q62 0 96 -54z" />
    <glyph glyph-name="Uacute" unicode="&#xda;" 
d="M842 322q0 -198 -177 -295q-85 -47 -192 -47q-221 0 -322 172q-47 78 -47 170v579q0 45 46 45h129q45 0 45 -45v-579q0 -63 43 -105.5t106 -42.5q64 0 107 42t43 106v579q0 45 45 45h129q45 0 45 -45v-579zM711 1272l-184 -144q-60 -47 -113 -47q-63 0 -63 52q0 23 14 45
l76 120q34 54 96 54h149q46 0 46 -41q0 -23 -21 -39z" />
    <glyph glyph-name="Ucircumflex" unicode="&#xdb;" 
d="M676 1126q0 -45 -45 -45h-66q-42 0 -45 43q-3 50 -47 50t-47 -50q-3 -43 -45 -43h-66q-45 0 -45 45q0 120 103 177q46 26 100 26q86 0 144.5 -59t58.5 -144zM842 322q0 -198 -177 -295q-85 -47 -192 -47q-221 0 -322 172q-47 78 -47 170v579q0 45 46 45h129q45 0 45 -45
v-579q0 -63 43 -105.5t106 -42.5q64 0 107 42t43 106v579q0 45 45 45h129q45 0 45 -45v-579z" />
    <glyph glyph-name="Udieresis" unicode="&#xdc;" 
d="M762 1126q0 -45 -45 -45h-131q-45 0 -45 45v95q0 45 45 45h131q45 0 45 -45v-95zM406 1126q0 -45 -46 -45h-131q-45 0 -45 45v95q0 45 45 45h131q46 0 46 -45v-95zM842 322q0 -198 -177 -295q-85 -47 -192 -47q-221 0 -322 172q-47 78 -47 170v579q0 45 46 45h129
q45 0 45 -45v-579q0 -63 43 -105.5t106 -42.5q64 0 107 42t43 106v579q0 45 45 45h129q45 0 45 -45v-579z" />
    <glyph glyph-name="Yacute" unicode="&#xdd;" 
d="M836 889l-232 -397q-22 -38 -22 -82v-365q0 -45 -45 -45h-127q-45 0 -45 45v365q0 42 -23 82l-231 397q-5 6 -5 20q0 37 37 37h142q41 0 65 -45l101 -190q14 -27 22 -27q9 0 23 27l100 190q24 45 66 45h143q37 0 37 -35q0 -12 -6 -22zM739 1272l-184 -144
q-60 -47 -113 -47q-63 0 -63 52q0 23 14 45l76 120q34 54 96 54h149q46 0 46 -41q0 -23 -21 -39z" />
    <glyph glyph-name="Thorn" unicode="&#xde;" 
d="M842 625q0 -198 -177 -295q-85 -47 -192 -47q-60 0 -123 18q-26 0 -26 -18v-238q0 -45 -45 -45h-129q-46 0 -46 45v1262q0 45 46 45h129q45 0 45 -45v-340q0 -19 26 -19q66 19 123 19q222 0 323 -172q46 -79 46 -170zM623 625q0 64 -43 105.5t-107 41.5q-63 0 -106 -42.5
t-43 -104.5q0 -63 43 -105.5t106 -42.5q64 0 107 42t43 106z" />
    <glyph glyph-name="germandbls" unicode="&#xdf;" 
d="M842 276q0 -190 -158 -263q-76 -36 -182 -36q-35 0 -51 3q-45 3 -45 45v104q0 45 45 45q174 0 174 98q0 105 -174 105q-45 0 -45 45v98q0 45 45 45q153 0 153 101q0 49 -42 79q-38 27 -89 27q-63 0 -106 -42.5t-43 -104.5v-985q0 -46 -45 -46h-129q-46 0 -46 46v985
q0 197 177 295q85 47 192 47q212 0 306 -148q44 -69 44 -153q0 -95 -75 -164q-9 -5 -9 -17q0 -11 9 -16q94 -72 94 -193z" />
    <glyph glyph-name="agrave" unicode="&#xe0;" horiz-adv-x="948" 
d="M842 45q0 -45 -45 -45h-80q-25 0 -37 18q-6 9 -29 9q-86 -47 -178 -47q-221 0 -322 172q-47 78 -47 170q0 196 177 294q84 46 192 46q61 0 129 -27q19 0 19 14q-8 55 -50 89t-98 34q-88 0 -182 -49q-6 -4 -21 -4q-24 3 -37 24l-53 88q-6 10 -6 19q0 27 29 43
q136 74 270 74q222 0 323 -172q46 -79 46 -170v-580zM623 322q0 64 -42.5 104.5t-107.5 40.5q-63 0 -106 -41t-43 -104t43 -105.5t106 -42.5q64 0 107 42t43 106zM579 1178q15 -24 15 -45q0 -52 -64 -52q-53 0 -113 47l-184 144q-20 16 -20 39q0 41 45 41h149q62 0 96 -54z
" />
    <glyph glyph-name="aacute" unicode="&#xe1;" 
d="M842 45q0 -45 -45 -45h-80q-25 0 -37 18q-6 9 -29 9q-86 -47 -178 -47q-221 0 -322 172q-47 78 -47 170q0 196 177 294q84 46 192 46q61 0 129 -27q19 0 19 14q-8 55 -50 89t-98 34q-88 0 -182 -49q-6 -4 -21 -4q-24 3 -37 24l-53 88q-6 10 -6 19q0 27 29 43
q136 74 270 74q222 0 323 -172q46 -79 46 -170v-580zM623 322q0 64 -42.5 104.5t-107.5 40.5q-63 0 -106 -41t-43 -104t43 -105.5t106 -42.5q64 0 107 42t43 106zM731 1272l-184 -144q-60 -47 -113 -47q-63 0 -63 52q0 23 14 45l76 120q34 54 96 54h149q46 0 46 -41
q0 -23 -21 -39z" />
    <glyph glyph-name="acircumflex" unicode="&#xe2;" 
d="M842 45q0 -45 -45 -45h-80q-25 0 -37 18q-6 9 -29 9q-86 -47 -178 -47q-221 0 -322 172q-47 78 -47 170q0 196 177 294q84 46 192 46q61 0 129 -27q19 0 19 14q-8 55 -50 89t-98 34q-88 0 -182 -49q-6 -4 -21 -4q-24 3 -37 24l-53 88q-6 10 -6 19q0 27 29 43
q136 74 270 74q222 0 323 -172q46 -79 46 -170v-580zM623 322q0 64 -42.5 104.5t-107.5 40.5q-63 0 -106 -41t-43 -104t43 -105.5t106 -42.5q64 0 107 42t43 106zM686 1126q0 -45 -45 -45h-66q-42 0 -45 43q-3 50 -47 50t-47 -50q-3 -43 -45 -43h-66q-45 0 -45 45
q0 120 103 177q46 26 100 26q86 0 144.5 -59t58.5 -144z" />
    <glyph glyph-name="atilde" unicode="&#xe3;" 
d="M696 1180q0 -38 -32 -60q-57 -39 -123 -39q-26 0 -70.5 17.5t-64.5 17.5q-48 0 -99 -35q-9 -6 -22 -6q-35 0 -35 41v62q0 44 33 67q49 35 123 35q27 0 73.5 -16.5t61.5 -16.5q39 0 92 35q15 10 31 10q32 0 32 -37v-75zM842 45q0 -45 -45 -45h-80q-25 0 -37 18q-6 9 -29 9
q-86 -47 -178 -47q-221 0 -322 172q-47 78 -47 170q0 196 177 294q84 46 192 46q61 0 129 -27q19 0 19 14q-8 55 -50 89t-98 34q-88 0 -182 -49q-6 -4 -21 -4q-24 3 -37 24l-53 88q-6 10 -6 19q0 27 29 43q136 74 270 74q222 0 323 -172q46 -79 46 -170v-580zM623 322
q0 64 -42.5 104.5t-107.5 40.5q-63 0 -106 -41t-43 -104t43 -105.5t106 -42.5q64 0 107 42t43 106z" />
    <glyph glyph-name="adieresis" unicode="&#xe4;" 
d="M762 1126q0 -45 -45 -45h-131q-45 0 -45 45v95q0 45 45 45h131q45 0 45 -45v-95zM406 1126q0 -45 -46 -45h-131q-45 0 -45 45v95q0 45 45 45h131q46 0 46 -45v-95zM842 45q0 -45 -45 -45h-80q-25 0 -37 18q-6 9 -29 9q-86 -47 -178 -47q-221 0 -322 172q-47 78 -47 170
q0 196 177 294q84 46 192 46q61 0 129 -27q19 0 19 14q-8 55 -50 89t-98 34q-88 0 -182 -49q-6 -4 -21 -4q-24 3 -37 24l-53 88q-6 10 -6 19q0 27 29 43q136 74 270 74q222 0 323 -172q46 -79 46 -170v-580zM623 322q0 64 -42.5 104.5t-107.5 40.5q-63 0 -106 -41t-43 -104
t43 -105.5t106 -42.5q64 0 107 42t43 106z" />
    <glyph glyph-name="aring" unicode="&#xe5;" 
d="M842 45q0 -45 -45 -45h-80q-25 0 -37 18q-6 9 -29 9q-86 -47 -178 -47q-221 0 -322 172q-47 78 -47 170q0 196 177 294q84 46 192 46q61 0 129 -27q19 0 19 14q-8 55 -50 89t-98 34q-88 0 -182 -49q-6 -4 -21 -4q-24 3 -37 24l-53 88q-6 10 -6 19q0 27 29 43
q136 74 270 74q222 0 323 -172q46 -79 46 -170v-580zM623 322q0 64 -42.5 104.5t-107.5 40.5q-63 0 -106 -41t-43 -104t43 -105.5t106 -42.5q64 0 107 42t43 106zM676 1217q0 -86 -58.5 -144.5t-144.5 -58.5t-144.5 58.5t-58.5 144.5t58.5 144t144.5 58q120 0 177 -100
q26 -47 26 -102zM522 1217q0 49 -49 49t-49 -49q0 -48 49 -48t49 48z" />
    <glyph glyph-name="ae" unicode="&#xe6;" horiz-adv-x="1892" 
d="M1788 322q0 -198 -177 -295q-85 -47 -192 -47q-220 0 -321 172q-47 78 -47 170v36q0 23 -23 23h-164q-22 0 -22 -23v-36q0 -198 -177 -295q-85 -47 -192 -47q-150 0 -253 75q-116 83 -116 228q0 139 120 216q102 66 249 66h127q23 0 23 23v37q0 64 -43 105.5t-107 41.5
q-63 0 -106 -42.5t-43 -104.5q0 -45 -45 -45h-129q-46 0 -46 45q0 197 177 295q85 47 192 47q222 0 323 -172q46 -79 46 -170v-37q0 -23 22 -23h164q23 0 23 23v37q0 197 177 295q84 47 191 47q164 0 266.5 -85t102.5 -218q0 -171 -177 -247q-85 -36 -192 -36h-127
q-22 0 -22 -23v-36q0 -63 43 -105.5t106 -42.5q64 0 107 42t43 106q0 45 45 45h129q45 0 45 -45zM1573 664q0 67 -73 95q-36 13 -81 13q-63 0 -106 -42.5t-43 -104.5v-37q0 -23 22 -23h127q154 0 154 99zM623 322v36q0 23 -23 23h-127q-56 0 -99 -21q-55 -27 -55 -77
q0 -56 52 -85q42 -24 102 -24q64 0 107 42t43 106z" />
    <glyph glyph-name="ccedilla" unicode="&#xe7;" 
d="M829 184q-57 -151 -233 -192q-18 -4 -18 -19q0 -9 14 -18q74 -45 74 -139q0 -102 -90 -150q-42 -22 -93 -22q-107 0 -157 90q-7 10 -7 24q0 22 17 35l41 31q13 10 24 10q23 0 39 -22q19 -25 43 -25q29 0 29 29q0 21 -29 30q-75 25 -75 97v12q0 32 -31 41
q-113 34 -181 121q-71 89 -71 205v303q0 197 178 295q85 47 191 47q168 0 269 -104q46 -48 66 -101q7 -19 7 -27q0 -23 -19 -35l-96 -63q-12 -8 -29 -8q-19 0 -33 18q-37 64 -65 89q-40 36 -100 36q-64 0 -107 -41.5t-43 -105.5v-303q0 -64 43 -106t107 -42q60 0 100 36
q28 25 65 89q13 18 33 18q17 0 29 -8l96 -63q19 -12 19 -35q0 -8 -7 -27z" />
    <glyph glyph-name="egrave" unicode="&#xe8;" 
d="M842 471q0 -90 -90 -90h-406q-22 0 -22 -23v-36q0 -63 43 -105.5t106 -42.5q60 0 101 36q26 24 65 89q11 18 33 18q16 0 28 -8l97 -63q18 -12 18 -35q0 -11 -6 -27q-36 -97 -136 -153q-91 -51 -200 -51q-221 0 -322 172q-47 78 -47 170v303q0 197 177 295q85 47 192 47
q222 0 323 -172q46 -79 46 -170v-154zM623 588v37q0 64 -43 105.5t-107 41.5q-63 0 -106 -42.5t-43 -104.5v-37q0 -23 22 -23h254q23 0 23 23zM571 1178q15 -24 15 -45q0 -52 -64 -52q-53 0 -113 47l-184 144q-20 16 -20 39q0 41 45 41h149q62 0 96 -54z" />
    <glyph glyph-name="eacute" unicode="&#xe9;" 
d="M842 471q0 -90 -90 -90h-406q-22 0 -22 -23v-36q0 -63 43 -105.5t106 -42.5q60 0 101 36q26 24 65 89q11 18 33 18q16 0 28 -8l97 -63q18 -12 18 -35q0 -11 -6 -27q-36 -97 -136 -153q-91 -51 -200 -51q-221 0 -322 172q-47 78 -47 170v303q0 197 177 295q85 47 192 47
q222 0 323 -172q46 -79 46 -170v-154zM623 588v37q0 64 -43 105.5t-107 41.5q-63 0 -106 -42.5t-43 -104.5v-37q0 -23 22 -23h254q23 0 23 23zM704 1272l-184 -144q-60 -47 -113 -47q-63 0 -63 52q0 23 14 45l76 120q34 54 96 54h149q46 0 46 -41q0 -23 -21 -39z" />
    <glyph glyph-name="ecircumflex" unicode="&#xea;" 
d="M676 1126q0 -45 -45 -45h-66q-42 0 -45 43q-3 50 -47 50t-47 -50q-3 -43 -45 -43h-66q-45 0 -45 45q0 120 103 177q46 26 100 26q86 0 144.5 -59t58.5 -144zM842 471q0 -90 -90 -90h-406q-22 0 -22 -23v-36q0 -63 43 -105.5t106 -42.5q60 0 101 36q26 24 65 89
q11 18 33 18q16 0 28 -8l97 -63q18 -12 18 -35q0 -11 -6 -27q-36 -97 -136 -153q-91 -51 -200 -51q-221 0 -322 172q-47 78 -47 170v303q0 197 177 295q85 47 192 47q222 0 323 -172q46 -79 46 -170v-154zM623 588v37q0 64 -43 105.5t-107 41.5q-63 0 -106 -42.5t-43 -104.5
v-37q0 -23 22 -23h254q23 0 23 23z" />
    <glyph glyph-name="edieresis" unicode="&#xeb;" 
d="M762 1126q0 -45 -45 -45h-131q-45 0 -45 45v95q0 45 45 45h131q45 0 45 -45v-95zM406 1126q0 -45 -46 -45h-131q-45 0 -45 45v95q0 45 45 45h131q46 0 46 -45v-95zM842 471q0 -90 -90 -90h-406q-22 0 -22 -23v-36q0 -63 43 -105.5t106 -42.5q60 0 101 36q26 24 65 89
q11 18 33 18q16 0 28 -8l97 -63q18 -12 18 -35q0 -11 -6 -27q-36 -97 -136 -153q-91 -51 -200 -51q-221 0 -322 172q-47 78 -47 170v303q0 197 177 295q85 47 192 47q222 0 323 -172q46 -79 46 -170v-154zM623 588v37q0 64 -43 105.5t-107 41.5q-63 0 -106 -42.5t-43 -104.5
v-37q0 -23 22 -23h254q23 0 23 23z" />
    <glyph glyph-name="igrave" unicode="&#xec;" 
d="M809 113q6 -8 6 -25q0 -26 -18 -39q-96 -69 -226 -69q-220 0 -321 172q-47 78 -47 170v579q0 45 45 45h129q45 0 45 -45v-579q0 -63 43 -105.5t106 -42.5q48 0 105 35q16 10 29 10q20 0 34 -18zM569 1178q15 -24 15 -45q0 -52 -64 -52q-53 0 -113 47l-184 144
q-20 16 -20 39q0 41 45 41h149q62 0 96 -54z" />
    <glyph glyph-name="iacute" unicode="&#xed;" 
d="M809 113q6 -8 6 -25q0 -26 -18 -39q-96 -69 -226 -69q-220 0 -321 172q-47 78 -47 170v579q0 45 45 45h129q45 0 45 -45v-579q0 -63 43 -105.5t106 -42.5q48 0 105 35q16 10 29 10q20 0 34 -18zM592 1272l-184 -144q-60 -47 -113 -47q-63 0 -63 52q0 23 14 45l76 120
q34 54 96 54h149q46 0 46 -41q0 -23 -21 -39z" />
    <glyph glyph-name="icircumflex" unicode="&#xee;" 
d="M809 113q6 -8 6 -25q0 -26 -18 -39q-96 -69 -226 -69q-220 0 -321 172q-47 78 -47 170v579q0 45 45 45h129q45 0 45 -45v-579q0 -63 43 -105.5t106 -42.5q48 0 105 35q16 10 29 10q20 0 34 -18zM608 1126q0 -45 -45 -45h-66q-42 0 -45 43q-3 50 -47 50t-47 -50
q-3 -43 -45 -43h-66q-45 0 -45 45q0 120 103 177q46 26 100 26q86 0 144.5 -59t58.5 -144z" />
    <glyph glyph-name="idieresis" unicode="&#xef;" 
d="M809 113q6 -8 6 -25q0 -26 -18 -39q-96 -69 -226 -69q-220 0 -321 172q-47 78 -47 170v579q0 45 45 45h129q45 0 45 -45v-579q0 -63 43 -105.5t106 -42.5q48 0 105 35q16 10 29 10q20 0 34 -18zM780 1126q0 -45 -45 -45h-131q-45 0 -45 45v95q0 45 45 45h131q45 0 45 -45
v-95zM424 1126q0 -45 -46 -45h-131q-45 0 -45 45v95q0 45 45 45h131q46 0 46 -45v-95z" />
    <glyph glyph-name="eth" unicode="&#xf0;" 
d="M842 322q0 -198 -177 -295q-85 -47 -192 -47q-221 0 -322 172q-47 78 -47 170v303q0 197 177 295q85 47 192 47q23 0 51 -4q17 0 17 30q-10 37 -39 68q-6 6 -13 6q-9 0 -16 -10l-16 -23q-14 -20 -43 -20q-14 0 -25 6l-76 43q-20 11 -20 35q0 13 6 26l6 13q0 19 -10 22
q-57 6 -74 6q-45 0 -45 45v97q0 45 45 45q82 0 187 -21q20 0 30 12l19 23q17 20 37 20q10 0 24 -8l88 -51q23 -13 23 -33q0 -11 -11 -28l-12 -19q-4 -8 -4 -12q0 -11 8 -16q120 -96 179 -258q53 -146 53 -336v-303zM623 322v303q0 64 -43 105.5t-107 41.5q-63 0 -106 -42.5
t-43 -104.5v-303q0 -63 43 -105.5t106 -42.5q64 0 107 42t43 106z" />
    <glyph glyph-name="ntilde" unicode="&#xf1;" 
d="M696 1180q0 -38 -32 -60q-57 -39 -123 -39q-26 0 -70.5 17.5t-64.5 17.5q-48 0 -99 -35q-9 -6 -22 -6q-35 0 -35 41v62q0 44 33 67q49 35 123 35q27 0 73.5 -16.5t61.5 -16.5q39 0 92 35q15 10 31 10q32 0 32 -37v-75zM842 45q0 -45 -45 -45h-129q-45 0 -45 45v580
q0 64 -43 105.5t-107 41.5q-63 0 -106 -42.5t-43 -104.5v-580q0 -45 -45 -45h-129q-46 0 -46 45v856q0 45 46 45h79q25 0 37 -18q6 -8 29 -8q89 47 178 47q222 0 323 -172q46 -79 46 -170v-580z" />
    <glyph glyph-name="ograve" unicode="&#xf2;" 
d="M842 322q0 -198 -177 -295q-85 -47 -192 -47q-221 0 -322 172q-47 78 -47 170v303q0 197 177 295q85 47 192 47q222 0 323 -172q46 -79 46 -170v-303zM623 322v303q0 64 -43 105.5t-107 41.5q-63 0 -106 -42.5t-43 -104.5v-303q0 -63 43 -105.5t106 -42.5q64 0 107 42
t43 106zM557 1178q15 -24 15 -45q0 -52 -64 -52q-53 0 -113 47l-184 144q-20 16 -20 39q0 41 45 41h149q62 0 96 -54z" />
    <glyph glyph-name="oacute" unicode="&#xf3;" 
d="M842 322q0 -198 -177 -295q-85 -47 -192 -47q-221 0 -322 172q-47 78 -47 170v303q0 197 177 295q85 47 192 47q222 0 323 -172q46 -79 46 -170v-303zM623 322v303q0 64 -43 105.5t-107 41.5q-63 0 -106 -42.5t-43 -104.5v-303q0 -63 43 -105.5t106 -42.5q64 0 107 42
t43 106zM709 1272l-184 -144q-60 -47 -113 -47q-63 0 -63 52q0 23 14 45l76 120q34 54 96 54h149q46 0 46 -41q0 -23 -21 -39z" />
    <glyph glyph-name="ocircumflex" unicode="&#xf4;" 
d="M676 1126q0 -45 -45 -45h-66q-42 0 -45 43q-3 50 -47 50t-47 -50q-3 -43 -45 -43h-66q-45 0 -45 45q0 120 103 177q46 26 100 26q86 0 144.5 -59t58.5 -144zM842 322q0 -198 -177 -295q-85 -47 -192 -47q-221 0 -322 172q-47 78 -47 170v303q0 197 177 295q85 47 192 47
q222 0 323 -172q46 -79 46 -170v-303zM623 322v303q0 64 -43 105.5t-107 41.5q-63 0 -106 -42.5t-43 -104.5v-303q0 -63 43 -105.5t106 -42.5q64 0 107 42t43 106z" />
    <glyph glyph-name="otilde" unicode="&#xf5;" 
d="M696 1180q0 -38 -32 -60q-57 -39 -123 -39q-26 0 -70.5 17.5t-64.5 17.5q-48 0 -99 -35q-9 -6 -22 -6q-35 0 -35 41v62q0 44 33 67q49 35 123 35q27 0 73.5 -16.5t61.5 -16.5q39 0 92 35q15 10 31 10q32 0 32 -37v-75zM842 322q0 -198 -177 -295q-85 -47 -192 -47
q-221 0 -322 172q-47 78 -47 170v303q0 197 177 295q85 47 192 47q222 0 323 -172q46 -79 46 -170v-303zM623 322v303q0 64 -43 105.5t-107 41.5q-63 0 -106 -42.5t-43 -104.5v-303q0 -63 43 -105.5t106 -42.5q64 0 107 42t43 106z" />
    <glyph glyph-name="odieresis" unicode="&#xf6;" 
d="M762 1126q0 -45 -45 -45h-131q-45 0 -45 45v95q0 45 45 45h131q45 0 45 -45v-95zM406 1126q0 -45 -46 -45h-131q-45 0 -45 45v95q0 45 45 45h131q46 0 46 -45v-95zM842 322q0 -198 -177 -295q-85 -47 -192 -47q-221 0 -322 172q-47 78 -47 170v303q0 197 177 295
q85 47 192 47q222 0 323 -172q46 -79 46 -170v-303zM623 322v303q0 64 -43 105.5t-107 41.5q-63 0 -106 -42.5t-43 -104.5v-303q0 -63 43 -105.5t106 -42.5q64 0 107 42t43 106z" />
    <glyph glyph-name="divide" unicode="&#xf7;" 
d="M584 702q0 -45 -45 -45h-131q-46 0 -46 45v95q0 45 46 45h131q45 0 45 -45v-95zM842 426q0 -45 -45 -45h-647q-46 0 -46 45v94q0 45 46 45h647q45 0 45 -45v-94zM584 150q0 -46 -45 -46h-131q-46 0 -46 46v94q0 45 46 45h131q45 0 45 -45v-94z" />
    <glyph glyph-name="oslash" unicode="&#xf8;" 
d="M842 322q0 -198 -177 -295q-85 -47 -192 -47q-221 0 -322 172q-47 78 -47 170v303q0 197 177 295q85 47 192 47q222 0 323 -172q46 -79 46 -170v-303zM557 700q10 15 10 23q0 14 -16 27q-28 22 -78 22q-63 0 -106 -42.5t-43 -104.5v-138q0 -20 16 -20q7 0 14 8zM623 322
v137q0 20 -17 20q-7 0 -14 -8l-203 -225q-10 -11 -10 -23q0 -13 16 -26q29 -23 78 -23q64 0 107 42t43 106z" />
    <glyph glyph-name="ugrave" unicode="&#xf9;" 
d="M842 45q0 -45 -45 -45h-80q-25 0 -37 18q-6 9 -29 9q-86 -47 -178 -47q-221 0 -322 172q-47 78 -47 170v579q0 45 46 45h129q45 0 45 -45v-579q0 -63 43 -105.5t106 -42.5q64 0 107 42t43 106v579q0 45 45 45h129q45 0 45 -45v-856zM583 1178q15 -24 15 -45
q0 -52 -64 -52q-53 0 -113 47l-184 144q-20 16 -20 39q0 41 45 41h149q62 0 96 -54z" />
    <glyph glyph-name="uacute" unicode="&#xfa;" 
d="M842 45q0 -45 -45 -45h-80q-25 0 -37 18q-6 9 -29 9q-86 -47 -178 -47q-221 0 -322 172q-47 78 -47 170v579q0 45 46 45h129q45 0 45 -45v-579q0 -63 43 -105.5t106 -42.5q64 0 107 42t43 106v579q0 45 45 45h129q45 0 45 -45v-856zM713 1272l-184 -144q-60 -47 -113 -47
q-63 0 -63 52q0 23 14 45l76 120q34 54 96 54h149q46 0 46 -41q0 -23 -21 -39z" />
    <glyph glyph-name="ucircumflex" unicode="&#xfb;" 
d="M676 1126q0 -45 -45 -45h-66q-42 0 -45 43q-3 50 -47 50t-47 -50q-3 -43 -45 -43h-66q-45 0 -45 45q0 120 103 177q46 26 100 26q86 0 144.5 -59t58.5 -144zM842 45q0 -45 -45 -45h-80q-25 0 -37 18q-6 9 -29 9q-86 -47 -178 -47q-221 0 -322 172q-47 78 -47 170v579
q0 45 46 45h129q45 0 45 -45v-579q0 -63 43 -105.5t106 -42.5q64 0 107 42t43 106v579q0 45 45 45h129q45 0 45 -45v-856z" />
    <glyph glyph-name="udieresis" unicode="&#xfc;" 
d="M762 1126q0 -45 -45 -45h-131q-45 0 -45 45v95q0 45 45 45h131q45 0 45 -45v-95zM406 1126q0 -45 -46 -45h-131q-45 0 -45 45v95q0 45 45 45h131q46 0 46 -45v-95zM842 45q0 -45 -45 -45h-80q-25 0 -37 18q-6 9 -29 9q-86 -47 -178 -47q-221 0 -322 172q-47 78 -47 170
v579q0 45 46 45h129q45 0 45 -45v-579q0 -63 43 -105.5t106 -42.5q64 0 107 42t43 106v579q0 45 45 45h129q45 0 45 -45v-856z" />
    <glyph glyph-name="yacute" unicode="&#xfd;" 
d="M842 -84q0 -197 -177 -295q-85 -47 -192 -47q-200 0 -330 107q-20 16 -20 38q0 14 8 27l47 78q16 26 41 26q11 0 25 -8q122 -73 229 -73q64 0 107 41.5t43 105.5v64q0 18 -27 18q-63 -18 -123 -18q-221 0 -322 172q-47 78 -47 170v579q0 45 46 45h129q45 0 45 -45v-579
q0 -63 43 -105.5t106 -42.5q64 0 107 42t43 106v579q0 45 45 45h129q45 0 45 -45v-985zM727 1272l-184 -144q-60 -47 -113 -47q-63 0 -63 52q0 23 14 45l76 120q34 54 96 54h149q46 0 46 -41q0 -23 -21 -39z" />
    <glyph glyph-name="thorn" unicode="&#xfe;" 
d="M842 322q0 -198 -177 -295q-85 -47 -192 -47q-60 0 -123 18q-26 0 -26 -18v-340q0 -46 -45 -46h-129q-46 0 -46 46v1667q0 45 46 45h129q45 0 45 -45v-340q0 -19 26 -19q66 19 123 19q222 0 323 -172q46 -79 46 -170v-303zM623 322v303q0 64 -43 105.5t-107 41.5
q-63 0 -106 -42.5t-43 -104.5v-303q0 -63 43 -105.5t106 -42.5q64 0 107 42t43 106z" />
    <glyph glyph-name="ydieresis" unicode="&#xff;" 
d="M762 1126q0 -45 -45 -45h-131q-45 0 -45 45v95q0 45 45 45h131q45 0 45 -45v-95zM406 1126q0 -45 -46 -45h-131q-45 0 -45 45v95q0 45 45 45h131q46 0 46 -45v-95zM842 -84q0 -197 -177 -295q-85 -47 -192 -47q-200 0 -330 107q-20 16 -20 38q0 14 8 27l47 78
q16 26 41 26q11 0 25 -8q122 -73 229 -73q64 0 107 41.5t43 105.5v64q0 18 -27 18q-63 -18 -123 -18q-221 0 -322 172q-47 78 -47 170v579q0 45 46 45h129q45 0 45 -45v-579q0 -63 43 -105.5t106 -42.5q64 0 107 42t43 106v579q0 45 45 45h129q45 0 45 -45v-985z" />
    <glyph glyph-name="dotlessi" unicode="&#x131;" 
d="M809 113q6 -8 6 -25q0 -26 -18 -39q-96 -69 -226 -69q-220 0 -321 172q-47 78 -47 170v579q0 45 45 45h129q45 0 45 -45v-579q0 -63 43 -105.5t106 -42.5q48 0 105 35q16 10 29 10q20 0 34 -18z" />
    <glyph glyph-name="Lslash" unicode="&#x141;" 
d="M866 45q0 -45 -45 -45h-526q-90 0 -90 90v287q0 12 -10 12q-7 0 -11 -4q-15 -12 -30 -12q-17 0 -31 14l-49 49q-15 15 -15 35q0 18 15 33l112 112q19 19 19 39v246q0 45 45 45h129q45 0 45 -45v-29q0 -14 8 -14q6 0 14 8l19 19q12 12 29 12q18 0 32 -14l54 -54
q16 -16 16 -32q0 -17 -16 -33l-138 -137q-18 -18 -18 -39v-381q0 -23 22 -23h375q45 0 45 -45v-94z" />
    <glyph glyph-name="lslash" unicode="&#x142;" 
d="M864 117q-106 -137 -289 -137q-220 0 -321 172q-47 78 -47 170v55q0 12 -10 12q-7 0 -11 -4q-15 -12 -30 -12q-17 0 -31 14l-49 49q-15 15 -15 35q0 18 15 33l112 112q19 19 19 39v652q0 45 45 45h129q45 0 45 -45v-435q0 -14 8 -14q5 0 15 8l18 19q11 12 29 12t32 -14
l54 -54q16 -16 16 -32q0 -17 -16 -33l-138 -137q-18 -18 -18 -39v-266q0 -63 43 -105.5t106 -42.5q64 0 123 62q19 20 41 20q18 0 35 -12l86 -60q17 -12 17 -32q0 -18 -13 -35z" />
    <glyph glyph-name="OE" unicode="&#x152;" horiz-adv-x="1892" 
d="M1804 322q0 -198 -177 -295q-84 -47 -191 -47q-221 0 -322 172q-47 78 -47 170v36q0 23 -23 23h-180q-22 0 -22 -23v-36q0 -198 -177 -295q-85 -47 -192 -47q-221 0 -322 172q-47 78 -47 170v303q0 197 177 295q85 47 192 47q222 0 323 -172q46 -79 46 -170v-37
q0 -23 22 -23h180q23 0 23 23v37q0 197 178 295q85 47 191 47q221 0 322 -172q46 -79 46 -170q0 -45 -45 -45h-129q-45 0 -45 45q0 63 -43 105t-106 42q-64 0 -107 -41.5t-43 -105.5v-37q0 -23 23 -23h159q45 0 45 -45v-94q0 -45 -45 -45h-159q-23 0 -23 -23v-36
q0 -64 43 -106t107 -42t106.5 42t42.5 106q0 45 45 45h129q45 0 45 -45zM623 322v303q0 64 -43 105.5t-107 41.5q-63 0 -106 -42.5t-43 -104.5v-303q0 -63 43 -105.5t106 -42.5q64 0 107 42t43 106z" />
    <glyph glyph-name="oe" unicode="&#x153;" horiz-adv-x="1892" 
d="M1788 322q0 -198 -177 -295q-85 -47 -192 -47q-220 0 -321 172q-47 78 -47 170v36q0 23 -23 23h-164q-22 0 -22 -23v-36q0 -198 -177 -295q-85 -47 -192 -47q-221 0 -322 172q-47 78 -47 170v303q0 197 177 295q85 47 192 47q222 0 323 -172q46 -79 46 -170v-37
q0 -23 22 -23h164q23 0 23 23v37q0 197 177 295q84 47 191 47q164 0 266.5 -85t102.5 -218q0 -171 -177 -247q-85 -36 -192 -36h-127q-22 0 -22 -23v-36q0 -63 43 -105.5t106 -42.5q64 0 107 42t43 106q0 45 45 45h129q45 0 45 -45zM1573 664q0 67 -73 95q-36 13 -81 13
q-63 0 -106 -42.5t-43 -104.5v-37q0 -23 22 -23h127q154 0 154 99zM623 322v303q0 64 -43 105.5t-107 41.5q-63 0 -106 -42.5t-43 -104.5v-303q0 -63 43 -105.5t106 -42.5q64 0 107 42t43 106z" />
    <glyph glyph-name="Scaron" unicode="&#x160;" 
d="M676 1284q0 -119 -101 -176q-47 -27 -102 -27q-86 0 -144.5 59t-58.5 144q0 45 45 45h66q42 0 45 -43q4 -49 47 -49t47 49q3 43 45 43h66q45 0 45 -45zM842 297q0 -152 -113 -239q-102 -78 -256 -78q-162 0 -280 108q-53 48 -84 100q-9 12 -9 27q0 23 21 37l82 55
q12 8 24 8q22 0 35 -20q95 -121 211 -121q62 0 103 30q47 33 47 93q0 80 -101 97q-27 4 -51 5q-220 11 -304 143q-40 62 -40 142q0 161 157 242q79 41 189 41q186 0 295 -136q12 -12 12 -28q0 -20 -18 -33l-88 -63q-10 -9 -27 -9q-21 0 -37 15q-63 61 -137 61q-49 0 -87 -20
q-46 -25 -46 -70q0 -87 135 -92q223 -8 319 -136q48 -65 48 -159z" />
    <glyph glyph-name="scaron" unicode="&#x161;" 
d="M676 1284q0 -119 -101 -176q-47 -27 -102 -27q-86 0 -144.5 59t-58.5 144q0 45 45 45h66q42 0 45 -43q4 -49 47 -49t47 49q3 43 45 43h66q45 0 45 -45zM842 297q0 -152 -113 -239q-102 -78 -256 -78q-162 0 -280 108q-53 48 -84 100q-9 12 -9 27q0 23 21 37l82 55
q12 8 24 8q22 0 35 -20q95 -121 211 -121q62 0 103 30q47 33 47 93q0 80 -101 97q-27 4 -51 5q-220 11 -304 143q-40 62 -40 142q0 161 157 242q79 41 189 41q186 0 295 -136q12 -12 12 -28q0 -20 -18 -33l-88 -63q-10 -9 -27 -9q-21 0 -37 15q-63 61 -137 61q-49 0 -87 -20
q-46 -25 -46 -70q0 -87 135 -92q223 -8 319 -136q48 -65 48 -159z" />
    <glyph glyph-name="Ydieresis" unicode="&#x178;" 
d="M762 1126q0 -45 -45 -45h-131q-45 0 -45 45v95q0 45 45 45h131q45 0 45 -45v-95zM406 1126q0 -45 -46 -45h-131q-45 0 -45 45v95q0 45 45 45h131q46 0 46 -45v-95zM836 889l-232 -397q-22 -38 -22 -82v-365q0 -45 -45 -45h-127q-45 0 -45 45v365q0 42 -23 82l-231 397
q-5 6 -5 20q0 37 37 37h142q41 0 65 -45l101 -190q14 -27 22 -27q9 0 23 27l100 190q24 45 66 45h143q37 0 37 -35q0 -12 -6 -22z" />
    <glyph glyph-name="Zcaron" unicode="&#x17d;" 
d="M842 45q0 -45 -45 -45h-492q-84 0 -142.5 55t-58.5 138q0 77 56 143l336 397q6 9 6 15q0 14 -21 14h-250q-45 0 -45 45v94q0 45 45 45h445q121 0 121 -112q0 -55 -39 -103l-406 -495q-8 -12 -8 -23q0 -29 29 -29h424q45 0 45 -45v-94zM711 1284q0 -119 -101 -176
q-47 -27 -102 -27q-86 0 -144.5 59t-58.5 144q0 45 45 45h66q42 0 45 -43q4 -49 47 -49t47 49q3 43 45 43h66q45 0 45 -45z" />
    <glyph glyph-name="zcaron" unicode="&#x17e;" 
d="M842 45q0 -45 -45 -45h-492q-84 0 -142.5 55t-58.5 138q0 77 56 143l336 397q6 9 6 15q0 14 -21 14h-250q-45 0 -45 45v94q0 45 45 45h445q121 0 121 -112q0 -55 -39 -103l-406 -495q-8 -12 -8 -23q0 -29 29 -29h424q45 0 45 -45v-94zM711 1284q0 -119 -101 -176
q-47 -27 -102 -27q-86 0 -144.5 59t-58.5 144q0 45 45 45h66q42 0 45 -43q4 -49 47 -49t47 49q3 43 45 43h66q45 0 45 -45z" />
    <glyph glyph-name="florin" unicode="&#x192;" 
d="M940 1200l-47 -78q-16 -26 -41 -26q-7 0 -25 8q-119 74 -229 74q-63 0 -106 -42.5t-43 -105.5v-61q0 -23 22 -23h150q45 0 45 -45v-94q0 -45 -45 -45h-150q-22 0 -22 -23v-923q0 -55 -31 -86l-107 -107q-29 -29 -51 -29q-31 0 -31 46v1099q0 23 -22 23h-37q-45 0 -45 45
v94q0 45 45 45h37q22 0 22 23v61q0 197 177 295q85 47 192 47q203 0 330 -106q20 -17 20 -39q0 -14 -8 -27z" />
    <glyph glyph-name="circumflex" unicode="&#x2c6;" 
d="M676 1126q0 -45 -45 -45h-66q-42 0 -45 43q-3 50 -47 50t-47 -50q-3 -43 -45 -43h-66q-45 0 -45 45q0 120 103 177q46 26 100 26q86 0 144.5 -59t58.5 -144z" />
    <glyph glyph-name="caron" unicode="&#x2c7;" 
d="M676 1284q0 -119 -101 -176q-47 -27 -102 -27q-86 0 -144.5 59t-58.5 144q0 45 45 45h66q42 0 45 -43q4 -49 47 -49t47 49q3 43 45 43h66q45 0 45 -45z" />
    <glyph glyph-name="breve" unicode="&#x2d8;" 
d="M676 1307q0 -119 -101 -176q-47 -27 -102 -27q-86 0 -144.5 59t-58.5 144q0 45 45 45h66q42 0 45 -43q4 -49 47 -49t47 49q3 43 45 43h66q45 0 45 -45z" />
    <glyph glyph-name="dotaccent" unicode="&#x2d9;" 
d="M584 1126q0 -45 -45 -45h-131q-46 0 -46 45v95q0 45 46 45h131q45 0 45 -45v-95z" />
    <glyph glyph-name="ring" unicode="&#x2da;" 
d="M676 1217q0 -86 -58.5 -144.5t-144.5 -58.5t-144.5 58.5t-58.5 144.5t58.5 144t144.5 58q120 0 177 -100q26 -47 26 -102zM522 1217q0 49 -49 49t-49 -49q0 -48 49 -48t49 48z" />
    <glyph glyph-name="ogonek" unicode="&#x2db;" 
d="M676 -246q0 -47 -49 -45q-114 4 -185 64q-77 65 -77 176v47q0 45 45 45h127q45 0 45 -45v-23q0 -46 47 -73.5t47 -61.5v-84z" />
    <glyph glyph-name="tilde" unicode="&#x2dc;" 
d="M696 1180q0 -38 -32 -60q-57 -39 -123 -39q-26 0 -70.5 17.5t-64.5 17.5q-48 0 -99 -35q-9 -6 -22 -6q-35 0 -35 41v62q0 44 33 67q49 35 123 35q27 0 73.5 -16.5t61.5 -16.5q39 0 92 35q15 10 31 10q32 0 32 -37v-75z" />
    <glyph glyph-name="hungarumlaut" unicode="&#x2dd;" 
d="M834 1272l-185 -144q-60 -47 -108 -47q-49 0 -49 45q0 27 16 52l76 120q34 54 96 54h129q45 0 45 -41q0 -23 -20 -39zM504 1272l-180 -144q-59 -47 -103 -47q-41 0 -41 41q0 26 19 56l75 120q34 54 97 54h108q45 0 45 -41q0 -23 -20 -39z" />
    <glyph glyph-name="Delta" unicode="&#x394;" horiz-adv-x="0" 
 />
    <glyph glyph-name="Delta" unicode="&#x2206;" horiz-adv-x="0" 
 />
    <glyph glyph-name="Omega" unicode="&#x3a9;" 
d="M766 244l-66 -66q-14 -14 -30 -14q-19 0 -33 14l-150 150q-5 8 -14 8q-8 0 -16 -8l-148 -148q-14 -14 -33 -14q-16 0 -30 14l-68 68q-14 14 -14 31q0 18 14 32l148 148q8 8 8 16q0 9 -8 14l-148 148q-14 14 -14 33q0 16 14 30l66 66q16 16 32 16q15 0 31 -16l148 -148
q8 -8 16 -8q7 0 16 11l148 147q14 14 31 14q15 0 32 -14l68 -68q14 -17 14 -32q0 -17 -14 -31l-148 -148q-10 -10 -10 -16q0 -8 8 -16l150 -150q16 -16 16 -31q0 -16 -16 -32z" />
    <glyph glyph-name="Omega" unicode="&#x2126;" 
d="M766 244l-66 -66q-14 -14 -30 -14q-19 0 -33 14l-150 150q-5 8 -14 8q-8 0 -16 -8l-148 -148q-14 -14 -33 -14q-16 0 -30 14l-68 68q-14 14 -14 31q0 18 14 32l148 148q8 8 8 16q0 9 -8 14l-148 148q-14 14 -14 33q0 16 14 30l66 66q16 16 32 16q15 0 31 -16l148 -148
q8 -8 16 -8q7 0 16 11l148 147q14 14 31 14q15 0 32 -14l68 -68q14 -17 14 -32q0 -17 -14 -31l-148 -148q-10 -10 -10 -16q0 -8 8 -16l150 -150q16 -16 16 -31q0 -16 -16 -32z" />
    <glyph glyph-name="pi" unicode="&#x3c0;" 
d="M842 20q0 -40 -56 -40q-126 15 -198 99.5t-72 211.5v448q0 23 -22 23h-41q-23 0 -23 -23v-694q0 -45 -45 -45h-94q-45 0 -45 45v694q0 23 -23 23h-73q-46 0 -46 45v94q0 45 46 45h647q45 0 45 -45v-94q0 -45 -45 -45h-74q-23 0 -23 -23v-448q0 -115 97 -137
q45 -10 45 -52v-82z" />
    <glyph glyph-name="endash" unicode="&#x2013;" horiz-adv-x="1892" 
d="M1788 426q0 -45 -45 -45h-1593q-46 0 -46 45v94q0 45 46 45h1593q45 0 45 -45v-94z" />
    <glyph glyph-name="emdash" unicode="&#x2014;" 
d="M842 426q0 -45 -45 -45h-647q-46 0 -46 45v94q0 45 46 45h647q45 0 45 -45v-94z" />
    <glyph glyph-name="quoteleft" unicode="&#x2018;" 
d="M672 1239q0 -45 -45 -57q-58 -16 -94.5 -68t-36.5 -113v-57q0 -45 -45 -45h-132q-45 0 -45 45v57q0 150 105.5 258.5t247.5 112.5q45 1 45 -45v-88z" />
    <glyph glyph-name="quoteright" unicode="&#x2019;" 
d="M672 1249q0 -154 -106 -260t-247 -110q-45 -1 -45 45v88q0 44 45 57q57 16 94.5 68t37.5 112v58q0 45 45 45h131q45 0 45 -45v-58z" />
    <glyph glyph-name="quotesinglbase" unicode="&#x201a;" 
d="M584 82q0 -153 -106 -260t-247 -111q-45 -1 -45 45v88q0 46 45 58q57 16 94 67.5t37 112.5v57q0 45 46 45h131q45 0 45 -45v-57z" />
    <glyph glyph-name="quotedblleft" unicode="&#x201c;" 
d="M879 1239q0 -45 -45 -57q-58 -16 -95 -68t-37 -113v-57q0 -45 -45 -45h-131q-45 0 -45 45v57q0 150 105.5 258.5t247.5 112.5q45 1 45 -45v-88zM465 1239q0 -45 -45 -57q-58 -15 -94.5 -67.5t-36.5 -113.5v-57q0 -45 -45 -45h-131q-45 0 -45 45v57q0 153 106 260t246 111
q45 1 45 -45v-88z" />
    <glyph glyph-name="quotedblright" unicode="&#x201d;" 
d="M879 1249q0 -154 -106 -260t-247 -110q-45 -1 -45 45v88q0 45 45 57q57 16 94 67.5t37 112.5v58q0 45 45 45h132q45 0 45 -45v-58zM465 1249q0 -152 -105 -259t-247 -111q-45 -1 -45 45v88q0 45 45 57q56 15 93.5 68t37.5 112v58q0 45 45 45h131q45 0 45 -45v-58z" />
    <glyph glyph-name="quotedblbase" unicode="&#x201e;" 
d="M879 82q0 -153 -106 -260t-247 -111q-45 -1 -45 45v88q0 46 45 58q57 16 94 67.5t37 112.5v57q0 45 45 45h132q45 0 45 -45v-57zM465 82q0 -110 -58.5 -202t-157.5 -137q-67 -30 -136 -32q-45 -1 -45 45v88q0 46 45 58q56 15 93.5 68t37.5 112v57q0 45 45 45h131
q45 0 45 -45v-57z" />
    <glyph glyph-name="dagger" unicode="&#x2020;" 
d="M842 807q0 -45 -45 -45h-191q-22 0 -22 -23v-1099q0 -46 -45 -46h-131q-46 0 -46 46v1099q0 23 -22 23h-190q-46 0 -46 45v94q0 45 46 45h190q22 0 22 23v338q0 45 46 45h131q45 0 45 -45v-338q0 -23 22 -23h191q45 0 45 -45v-94z" />
    <glyph glyph-name="daggerdbl" unicode="&#x2021;" 
d="M842 45q0 -45 -45 -45h-191q-22 0 -22 -23v-337q0 -46 -45 -46h-131q-46 0 -46 46v337q0 23 -22 23h-190q-46 0 -46 45v94q0 45 46 45h190q22 0 22 23v532q0 23 -22 23h-190q-46 0 -46 45v94q0 45 46 45h190q22 0 22 23v338q0 45 46 45h131q45 0 45 -45v-338
q0 -23 22 -23h191q45 0 45 -45v-94q0 -45 -45 -45h-191q-22 0 -22 -23v-532q0 -23 22 -23h191q45 0 45 -45v-94z" />
    <glyph glyph-name="bullet" unicode="&#x2022;" 
d="M842 473q0 -212 -183 -319q-85 -50 -186 -50q-212 0 -319 184q-50 84 -50 185q0 212 184 320q84 49 185 49q155 0 262 -107t107 -262z" />
    <glyph glyph-name="ellipsis" unicode="&#x2026;" horiz-adv-x="1892" 
d="M1788 45q0 -45 -45 -45h-131q-45 0 -45 45v94q0 45 45 45h131q45 0 45 -45v-94zM1300 45q0 -45 -45 -45h-131q-45 0 -45 45v94q0 45 45 45h131q45 0 45 -45v-94zM811 45q0 -45 -45 -45h-131q-45 0 -45 45v94q0 45 45 45h131q45 0 45 -45v-94zM326 45q0 -45 -45 -45h-131
q-46 0 -46 45v94q0 45 46 45h131q45 0 45 -45v-94z" />
    <glyph glyph-name="perthousand" unicode="&#x2030;" 
d="M842 186q0 -89 -63 -147.5t-152 -58.5q-80 0 -144 51q-2 4 -10 4t-12 -4q-61 -51 -142 -51q-88 0 -151.5 59t-63.5 147v179q0 64 25 114l137 273q4 6 4 16q-3 14 -14 16q-69 19 -110.5 75t-41.5 128v178q0 88 63.5 147.5t151.5 59.5q89 0 152.5 -59t63.5 -148v-178
q0 -59 -25 -110l-137 -279q0 -30 14 -35q37 -13 72 -39q8 -4 12 -4q8 0 12 4q64 51 144 51q90 0 152.5 -60t62.5 -150v-179zM373 981v190q0 58 -54 58q-53 0 -53 -58v-190q0 -59 53 -59q54 0 54 59zM680 180v191q0 59 -53 59q-54 0 -54 -59v-191q0 -57 54 -57q53 0 53 57z
M373 180v191q0 59 -54 59q-53 0 -53 -59v-191q0 -57 53 -57q54 0 54 57z" />
    <glyph glyph-name="guilsinglleft" unicode="&#x2039;" 
d="M598 315q0 -45 -45 -45q-120 0 -177 103q-26 46 -26 100q0 86 59 144.5t144 58.5q45 0 45 -45v-66q0 -42 -43 -45q-49 -4 -49 -47t49 -47q43 -3 43 -45v-66z" />
    <glyph glyph-name="guilsinglright" unicode="&#x203a;" 
d="M598 473q0 -86 -59 -144.5t-144 -58.5q-45 0 -45 45v66q0 42 43 45q49 3 49 47t-49 47q-43 3 -43 45v66q0 45 45 45q119 0 177 -101q26 -47 26 -102z" />
    <glyph glyph-name="fraction" unicode="&#x2044;" 
d="M838 1298l-516 -1523q-15 -45 -58 -45h-117q-41 0 -41 53l512 1524q15 45 58 45h119q43 0 43 -54z" />
    <glyph glyph-name="trademark" unicode="&#x2122;" 
d="M842 856q0 -45 -45 -45h-68q-45 0 -45 45v328q0 33 -31 33q-28 0 -28 -33v-123q0 -45 -45 -45h-68q-45 0 -45 45v123q0 33 -31 33q-28 0 -28 -33v-328q0 -45 -46 -45h-67q-45 0 -45 45v338q0 23 -23 23h-77q-46 0 -46 45v45q0 45 46 45h274q62 0 113 -33h20q54 33 113 33
q172 0 172 -187v-309z" />
    <glyph glyph-name="partialdiff" unicode="&#x2202;" 
d="M842 322q0 -198 -177 -295q-85 -47 -192 -47q-221 0 -322 172q-47 78 -47 170v303q0 197 177 295q85 47 192 47q23 0 51 -4q17 0 17 30q-14 52 -95 107q-93 63 -225 63q-45 0 -45 45v99q0 45 45 45q234 0 400 -142q221 -189 221 -585v-303zM623 322v303q0 64 -43 105.5
t-107 41.5q-63 0 -106 -42.5t-43 -104.5v-303q0 -63 43 -105.5t106 -42.5q64 0 107 42t43 106z" />
    <glyph glyph-name="product" unicode="&#x220f;" 
d="M842 1212q0 -45 -45 -45h-74q-23 0 -23 -22v-1100q0 -45 -45 -45h-94q-45 0 -45 45v1100q0 22 -22 22h-41q-23 0 -23 -22v-1100q0 -45 -45 -45h-94q-45 0 -45 45v1100q0 22 -23 22h-73q-46 0 -46 45v95q0 45 46 45h647q45 0 45 -45v-95z" />
    <glyph glyph-name="summation" unicode="&#x2211;" 
d="M842 473q0 -212 -183 -319q-85 -50 -186 -50q-212 0 -319 184q-50 84 -50 185q0 212 184 320q84 49 185 49q155 0 262 -107t107 -262zM623 473q0 62 -44 106t-106 44q-63 0 -106 -44t-43 -106t43.5 -105.5t105.5 -43.5q63 0 106.5 43.5t43.5 105.5z" />
    <glyph glyph-name="radical" unicode="&#x221a;" horiz-adv-x="0" 
 />
    <glyph glyph-name="infinity" unicode="&#x221e;" horiz-adv-x="0" 
 />
    <glyph glyph-name="integral" unicode="&#x222b;" 
d="M842 322q0 -198 -177 -295q-85 -47 -192 -47q-221 0 -322 172q-47 78 -47 170v985q0 45 46 45h129q45 0 45 -45v-340q0 -19 26 -19q66 19 123 19q222 0 323 -172q46 -79 46 -170v-303zM623 322v303q0 64 -43 105.5t-107 41.5q-63 0 -106 -42.5t-43 -104.5v-303
q0 -63 43 -105.5t106 -42.5q64 0 107 42t43 106z" />
    <glyph glyph-name="approxequal" unicode="&#x2248;" 
d="M842 616q0 -32 -33 -53q-88 -55 -201 -55q-52 0 -132 28q-95 33 -138 33q-81 0 -180 -57q-7 -4 -19 -4q-35 0 -35 39v94q0 66 126 102q55 15 108 15q41 0 206 -51q35 -11 64 -11q47 0 95 20q43 19 87 39q8 3 19 3q33 -4 33 -35v-107zM842 297q0 -32 -33 -53
q-90 -56 -201 -56q-50 0 -132 29q-95 33 -138 33q-77 0 -180 -57q-6 -5 -19 -5q-35 0 -35 39v95q0 39 33 61q83 55 201 55q45 0 105 -18l102 -32q37 -11 63 -11q80 0 176 55q13 6 25 6q33 -4 33 -35v-106z" />
    <glyph glyph-name="approxequal" unicode="&#x22f2;" 
d="M842 616q0 -32 -33 -53q-88 -55 -201 -55q-52 0 -132 28q-95 33 -138 33q-81 0 -180 -57q-7 -4 -19 -4q-35 0 -35 39v94q0 66 126 102q55 15 108 15q41 0 206 -51q35 -11 64 -11q47 0 95 20q43 19 87 39q8 3 19 3q33 -4 33 -35v-107zM842 297q0 -32 -33 -53
q-90 -56 -201 -56q-50 0 -132 29q-95 33 -138 33q-77 0 -180 -57q-6 -5 -19 -5q-35 0 -35 39v95q0 39 33 61q83 55 201 55q45 0 105 -18l102 -32q37 -11 63 -11q80 0 176 55q13 6 25 6q33 -4 33 -35v-106z" />
    <glyph glyph-name="notequal" unicode="&#x2260;" 
d="M842 268q0 -45 -45 -45h-291q-31 0 -43 -26l-31 -68q-13 -29 -39 -29q-8 0 -18 4l-101 41q-28 11 -28 35q0 15 4 23q0 20 -17 20h-83q-46 0 -46 45v92q0 46 46 46h149q31 0 43 26l37 82q4 11 4 14q0 13 -23 13h-210q-46 0 -46 45v92q0 45 46 45h284q31 0 43 27l31 71
q12 27 39 27q10 0 20 -4l105 -43q28 -11 28 -39q0 -5 -4 -19q0 -20 17 -20h84q45 0 45 -45v-92q0 -45 -45 -45h-154q-31 0 -43 -27l-37 -82q-4 -9 -4 -12q0 -14 23 -14h215q45 0 45 -46v-92z" />
    <glyph glyph-name="lessequal" unicode="&#x2264;" 
d="M842 256q0 -45 -39 -45q-5 1 -17 4l-565 238q-117 49 -117 127t117 127l565 239q13 4 17 4q39 0 39 -45v-86q0 -50 -45 -69l-369 -154q-18 -8 -18 -16q0 -10 18 -17l369 -151q45 -18 45 -70v-86zM842 45q0 -45 -45 -45h-647q-46 0 -46 45v94q0 45 46 45h647q45 0 45 -45
v-94z" />
    <glyph glyph-name="greaterequal" unicode="&#x2265;" 
d="M842 580q0 -78 -117 -127l-565 -238q-9 -4 -17 -4q-39 0 -39 45v86q0 51 46 70l368 151q19 8 19 17q0 10 -19 16l-368 154q-46 19 -46 69v86q0 45 39 45q8 0 17 -4l565 -239q117 -49 117 -127zM842 45q0 -45 -45 -45h-647q-46 0 -46 45v94q0 45 46 45h647q45 0 45 -45
v-94z" />
    <glyph glyph-name="lozenge" unicode="&#x25ca;" horiz-adv-x="0" 
 />
    <glyph glyph-name="apple" unicode="&#xf000;" horiz-adv-x="0" 
 />
    <glyph glyph-name="fi" unicode="&#xf001;" horiz-adv-x="1892" 
d="M1755 113q6 -8 6 -25q0 -26 -18 -39q-95 -69 -225 -69q-221 0 -322 172q-47 78 -47 170v579q0 45 45 45h129q45 0 45 -45v-579q0 -64 43 -106t107 -42q47 0 104 35q16 10 29 10q18 0 35 -18zM1368 1212q0 -46 -45 -45l-725 11q-62 1 -105.5 -42t-43.5 -106v-61
q0 -23 22 -23h285q45 0 45 -45v-94q0 -45 -45 -45h-285q-22 0 -22 -23v-694q0 -45 -46 -45h-129q-45 0 -45 45v694q0 23 -22 23h-37q-45 0 -45 45v94q0 45 45 45h37q22 0 22 23v61q0 197 176 295q89 50 193 47l725 -20q45 -1 45 -45v-95z" />
    <glyph glyph-name="fl" unicode="&#xf002;" horiz-adv-x="1892" 
d="M1798 117q-106 -137 -289 -137q-220 0 -321 172q-47 78 -47 170v827q0 19 -23 22l-520 7q-63 1 -106 -42t-43 -106v-61q0 -23 22 -23h285q45 0 45 -45v-94q0 -45 -45 -45h-285q-22 0 -22 -23v-694q0 -45 -46 -45h-129q-45 0 -45 45v694q0 23 -22 23h-37q-45 0 -45 45v94
q0 45 45 45h37q22 0 22 23v61q0 197 176 295q90 50 193 47l672 -20q90 -3 90 -92v-938q0 -63 43 -105.5t106 -42.5t123 62q20 20 41 20q18 0 35 -12l86 -60q16 -11 16 -32q0 -19 -12 -35z" />
    <glyph glyph-name="glyph259" horiz-adv-x="0" 
 />
  </font>
</defs>
</svg>
